<svg width="17" height="11" viewBox="0 0 17 11" fill="none" xmlns="http://www.w3.org/2000/svg">
<path fill-rule="evenodd" clip-rule="evenodd" d="M8.5 10.9664C11.6296 10.9664 14.463 9.13864 17 5.48318C14.463 1.82773 11.6296 0 8.5 0C5.37039 0 2.53705 1.82773 0 5.48318C2.53705 9.13864 5.37039 10.9664 8.5 10.9664Z" fill="#8982FF"/>
<path fill-rule="evenodd" clip-rule="evenodd" d="M8.50022 1.99372C8.68486 1.99372 8.86616 2.00798 9.04307 2.03544C9.01456 2.18388 9.00022 2.33637 9.00022 2.4922C9.00022 3.86869 10.1195 4.98455 11.5002 4.98455C11.6565 4.98455 11.8095 4.97025 11.9578 4.94289C11.9859 5.1182 12.0002 5.29895 12.0002 5.48302C12.0002 7.41011 10.4332 8.97232 8.50022 8.97232C6.56722 8.97232 5.00022 7.41011 5.00022 5.48302C5.00022 3.55594 6.56722 1.99372 8.50022 1.99372Z" fill="white" stroke="#8982FF" stroke-linecap="round" stroke-linejoin="round"/>
</svg>
