<svg width="273" height="76" viewBox="0 0 273 76" fill="none" xmlns="http://www.w3.org/2000/svg">
<path d="M9.60703 65.0426H0V75.4817H9.60703V65.0426Z" fill="#8982FF"/>
<path d="M59.2435 28.9077H49.6365V75.4818H59.2435V28.9077Z" fill="#8982FF"/>
<path d="M108.88 50.5888H99.2728V75.4818H108.88V50.5888Z" fill="#8982FF"/>
<path d="M158.516 67.4517H148.909V75.4817H158.516V67.4517Z" fill="#8982FF"/>
<path d="M208.152 12.8477H198.545V75.4817H208.152V12.8477Z" fill="#8982FF"/>
<path d="M257.789 12.8477H248.182V75.4817H257.789V12.8477Z" fill="#8982FF"/>
<path d="M24.8183 0.802857H15.2113V75.4819H24.8183V0.802857Z" fill="#EEEEEE"/>
<path d="M74.4548 44.1645H64.8478V75.4815H74.4548V44.1645Z" fill="#EEEEEE"/>
<path d="M124.091 12.8477H114.484V75.4817H124.091V12.8477Z" fill="#EEEEEE"/>
<path d="M173.727 0H164.12V75.482H173.727V0Z" fill="#EEEEEE"/>
<path d="M223.364 60.2245H213.757V75.4815H223.364V60.2245Z" fill="#EEEEEE"/>
<path d="M273 60.2245H263.393V75.4815H273V60.2245Z" fill="#EEEEEE"/>
</svg>
