<svg width="21" height="20" viewBox="0 0 21 20" fill="none" xmlns="http://www.w3.org/2000/svg">
<path d="M10.0615 20C4.50455 20 0 15.523 0 10C0 4.477 4.50455 0 10.0615 0C15.6185 0 20.1231 4.477 20.1231 10C20.1231 15.523 15.6185 20 10.0615 20ZM10.0615 18C12.1963 18 14.2437 17.1571 15.7532 15.6569C17.2627 14.1566 18.1108 12.1217 18.1108 10C18.1108 7.87827 17.2627 5.84344 15.7532 4.34315C14.2437 2.84285 12.1963 2 10.0615 2C7.92675 2 5.8794 2.84285 4.36987 4.34315C2.86035 5.84344 2.01231 7.87827 2.01231 10C2.01231 12.1217 2.86035 14.1566 4.36987 15.6569C5.8794 17.1571 7.92675 18 10.0615 18ZM8.09954 9H13.08V11H8.09954C8.1867 11.4253 8.38378 11.8208 8.67139 12.1474C8.959 12.4741 9.32722 12.7207 9.73982 12.8629C10.1524 13.0052 10.5952 13.0383 11.0246 12.9589C11.4539 12.8794 11.8551 12.6903 12.1885 12.41L13.899 13.543C13.3113 14.1789 12.5518 14.6333 11.7113 14.852C10.8708 15.0707 9.98478 15.0445 9.15889 14.7764C8.33301 14.5083 7.60217 14.0097 7.0536 13.3401C6.50502 12.6705 6.16187 11.8581 6.06509 11H5.03077V9H6.06409C6.16053 8.14144 6.50359 7.32861 7.0523 6.6586C7.601 5.98859 8.33215 5.48972 9.15843 5.22157C9.98471 4.95342 10.8712 4.92732 11.712 5.14639C12.5528 5.36546 13.3124 5.82045 13.9 6.457L12.1885 7.59C11.8551 7.30972 11.4539 7.12056 11.0246 7.04114C10.5952 6.96172 10.1524 6.99478 9.73982 7.13706C9.32722 7.27933 8.959 7.52593 8.67139 7.85258C8.38378 8.17923 8.1867 8.57467 8.09954 9Z" fill="#8982FF"/>
</svg>
