<svg width="11" height="11" viewBox="0 0 11 11" fill="none" xmlns="http://www.w3.org/2000/svg">
<path fill-rule="evenodd" clip-rule="evenodd" d="M3.8966 10.4057L9.26594 3.46214C9.55775 3.0877 9.66151 2.65479 9.56424 2.214C9.47994 1.81328 9.23352 1.43227 8.86389 1.14323L7.96251 0.427196C7.17786 -0.196872 6.20516 -0.13118 5.64747 0.584855L5.0444 1.36724C4.96658 1.46512 4.98603 1.60964 5.0833 1.68847C5.0833 1.68847 6.60721 2.91033 6.63963 2.9366C6.74339 3.03514 6.82121 3.16652 6.84066 3.32418C6.87308 3.63293 6.65909 3.92197 6.34134 3.96139C6.19219 3.9811 6.04952 3.93511 5.94577 3.84971L4.34405 2.5753C4.26623 2.51684 4.14951 2.52932 4.08466 2.60815L0.278134 7.535C0.031715 7.84375 -0.0525862 8.24446 0.031715 8.63204L0.518068 10.7407C0.544007 10.8524 0.641278 10.9312 0.758002 10.9312L2.89796 10.905C3.28704 10.8984 3.65018 10.721 3.8966 10.4057ZM6.89312 9.74914H10.3825C10.723 9.74914 10.9999 10.0296 10.9999 10.3745C10.9999 10.7201 10.723 10.9999 10.3825 10.9999H6.89312C6.55267 10.9999 6.27578 10.7201 6.27578 10.3745C6.27578 10.0296 6.55267 9.74914 6.89312 9.74914Z" fill="#8982FF"/>
</svg>
