<svg width="37" height="32" viewBox="0 0 37 32" fill="none" xmlns="http://www.w3.org/2000/svg">
<path d="M35.9708 14H34.0758C33.5105 12.75 32.6883 11.6438 31.6734 10.7188L32.8874 6H30.8319C28.9433 6 27.2732 6.84375 26.1426 8.14375C25.6545 8.075 25.1727 8 24.6652 8H16.443C11.4711 8 7.32789 11.4375 6.37077 16H3.59577C2.64508 16 1.89352 15.1562 2.08623 14.2C2.22754 13.4875 2.91487 13 3.66001 13H3.72425C3.93622 13 4.10966 12.8313 4.10966 12.625V11.375C4.10966 11.1687 3.93622 11 3.72425 11C1.89352 11 0.26192 12.275 0.0306699 14.0375C-0.251969 16.175 1.45671 18 3.59577 18H6.16522C6.16522 21.2625 7.79682 24.1312 10.2763 25.9562V31C10.2763 31.55 10.7388 32 11.3041 32H15.4152C15.9805 32 16.443 31.55 16.443 31V28H24.6652V31C24.6652 31.55 25.1277 32 25.693 32H29.8041C30.3694 32 30.8319 31.55 30.8319 31V25.9562C31.5899 25.4 32.2643 24.7437 32.8425 24H35.9708C36.536 24 36.9986 23.55 36.9986 23V15C36.9986 14.45 36.536 14 35.9708 14ZM27.7485 18C27.1833 18 26.7208 17.55 26.7208 17C26.7208 16.45 27.1833 16 27.7485 16C28.3138 16 28.7763 16.45 28.7763 17C28.7763 17.55 28.3138 18 27.7485 18ZM16.443 6H24.6652C25.0121 6 25.3525 6.025 25.6866 6.05C25.6866 6.03125 25.693 6.01875 25.693 6C25.693 2.6875 22.9308 0 19.5263 0C16.1218 0 13.3597 2.6875 13.3597 6C13.3597 6.13125 13.3918 6.25625 13.3982 6.3875C14.3746 6.14375 15.3895 6 16.443 6Z" fill="#8982FF"/>
</svg>
