<svg width="14" height="15" viewBox="0 0 14 15" fill="none" xmlns="http://www.w3.org/2000/svg">
<path fill-rule="evenodd" clip-rule="evenodd" d="M13.0392 4.51576L12.6037 3.7601C12.2353 3.12069 11.4189 2.90011 10.7786 3.267V3.267C10.4738 3.44654 10.1101 3.49748 9.76774 3.40858C9.42536 3.31968 9.1324 3.09824 8.95346 2.7931C8.83835 2.59915 8.7765 2.37824 8.77415 2.15271V2.15271C8.78454 1.79113 8.64812 1.44074 8.39599 1.18136C8.14385 0.921987 7.79746 0.775713 7.43573 0.775862H6.55839C6.204 0.775858 5.86423 0.917074 5.61424 1.16826C5.36425 1.41945 5.22467 1.7599 5.22637 2.11429V2.11429C5.21587 2.84596 4.6197 3.43357 3.88795 3.4335C3.66242 3.43116 3.44151 3.3693 3.24755 3.25419V3.25419C2.60727 2.8873 1.79084 3.10788 1.42243 3.74729L0.954941 4.51576C0.58698 5.15437 0.804558 5.97029 1.44164 6.34089V6.34089C1.85575 6.57997 2.11086 7.02182 2.11086 7.5C2.11086 7.97818 1.85575 8.42003 1.44164 8.65911V8.65911C0.805367 9.02721 0.587552 9.84115 0.954941 10.4778V10.4778L1.39681 11.2399C1.56943 11.5514 1.85904 11.7812 2.20158 11.8786C2.54411 11.9759 2.91131 11.9327 3.22194 11.7586V11.7586C3.5273 11.5804 3.89118 11.5316 4.23271 11.623C4.57423 11.7144 4.8651 11.9384 5.04066 12.2453C5.15577 12.4393 5.21762 12.6602 5.21997 12.8857V12.8857C5.21997 13.6249 5.8192 14.2241 6.55839 14.2241H7.43573C8.17243 14.2241 8.77063 13.6288 8.77415 12.8921V12.8921C8.77244 12.5366 8.9129 12.1952 9.16428 11.9438C9.41565 11.6924 9.75708 11.552 10.1126 11.5537C10.3376 11.5597 10.5576 11.6213 10.753 11.733V11.733C11.3916 12.101 12.2075 11.8834 12.5781 11.2463V11.2463L13.0392 10.4778C13.2177 10.1715 13.2666 9.80665 13.1753 9.46408C13.0839 9.12152 12.8598 8.82951 12.5525 8.65271V8.65271C12.2452 8.47591 12.021 8.1839 11.9297 7.84134C11.8383 7.49877 11.8873 7.13392 12.0658 6.82759C12.1818 6.62495 12.3498 6.45695 12.5525 6.34089V6.34089C13.1857 5.97049 13.4028 5.15934 13.0392 4.52217V4.52217V4.51576Z" stroke="black" stroke-width="1.5" stroke-linecap="round" stroke-linejoin="round"/>
<circle cx="7.00021" cy="7.49964" r="1.84433" stroke="black" stroke-width="1.5" stroke-linecap="round" stroke-linejoin="round"/>
</svg>
