<svg width="13" height="11" viewBox="0 0 13 11" fill="none" xmlns="http://www.w3.org/2000/svg">
<path fill-rule="evenodd" clip-rule="evenodd" d="M8.03179 0.684771C8.65076 0.931132 8.84013 1.78911 9.09323 2.06488C9.34633 2.34066 9.70852 2.43443 9.90892 2.43443C10.974 2.43443 11.8375 3.29792 11.8375 4.36242V7.91382C11.8375 9.34173 10.6793 10.5 9.25134 10.5H3.08618C1.65765 10.5 0.5 9.34173 0.5 7.91382V4.36242C0.5 3.29792 1.36349 2.43443 2.4286 2.43443C2.62839 2.43443 2.99058 2.34066 3.24429 2.06488C3.4974 1.78911 3.68615 0.931132 4.30512 0.684771C4.9247 0.43841 7.41282 0.43841 8.03179 0.684771Z" stroke="white" stroke-linecap="round" stroke-linejoin="round"/>
<path d="M9.53663 4.0237H9.54215" stroke="white" stroke-linecap="round" stroke-linejoin="round"/>
<path fill-rule="evenodd" clip-rule="evenodd" d="M8.11683 6.24753C8.11683 5.17139 7.24476 4.29932 6.16861 4.29932C5.09247 4.29932 4.2204 5.17139 4.2204 6.24753C4.2204 7.32368 5.09247 8.19575 6.16861 8.19575C7.24476 8.19575 8.11683 7.32368 8.11683 6.24753Z" stroke="white" stroke-linecap="round" stroke-linejoin="round"/>
</svg>
