<svg width="179" height="200" viewBox="0 0 179 200" fill="none" xmlns="http://www.w3.org/2000/svg">
<path d="M51.0617 44.6619C49.6915 45.1848 48.2924 45.628 46.8712 45.9894C44.994 46.4478 43.9341 46.6602 42.1223 45.9558C42.0586 45.931 41.9979 45.9066 41.9406 45.8825C38.5063 44.4197 35.5706 41.9883 33.4907 38.8842C31.4109 35.7801 30.2767 32.1372 30.2262 28.399C30.2171 28.2708 30.2171 28.136 30.2171 28.0044C30.2154 27.3709 30.2456 26.7376 30.3077 26.1071C30.3871 25.2483 30.5242 24.3958 30.7182 23.5555L30.7001 23.5522C29.2331 22.0495 28.6687 19.991 28.8558 17.9228C28.984 16.5205 29.4283 15.1658 30.155 13.9605C30.8818 12.7553 31.8721 11.731 33.0514 10.9649C34.8996 9.8008 36.9835 9.06392 39.1516 8.80782C39.7337 8.74057 40.3192 8.70653 40.9053 8.70588H46.4108C47.5479 8.43918 48.703 8.25674 49.8669 8.16003H49.8759C60.9565 7.23933 69.6947 14.5984 68.8797 23.5522C68.8737 23.5621 68.8647 23.5719 68.8586 23.5818C68.6232 23.9665 68.4149 24.3315 68.2308 24.68C68.0527 25.0056 67.9018 25.318 67.772 25.6139C66.7608 27.9025 71.5661 63.4101 69.8426 63.9494C68.8616 64.2552 64.9075 37.833 65.6168 42.8573C66.5103 49.1608 56.1664 42.7715 51.0617 44.6619Z" fill="#2F2E41"/>
<path d="M67.7539 108.849L83.1137 141.63L24.0281 135.635L36.362 104.166L67.7539 108.849Z" fill="#FFB6B6"/>
<path d="M98.5873 174.574C88.3127 178.001 77.4849 179.453 66.6724 178.857L61.9706 171.218C61.9706 171.218 61.7737 174.063 61.4801 178.412C56.333 177.815 51.2531 176.736 46.3068 175.189C36.9265 172.251 28.1336 167.698 19.2205 163.499C17.4152 152.718 16.7378 136.093 26.7187 126.415L80.4408 136.277C80.4408 136.277 89.0602 142.736 86.7544 145.049C84.4485 147.359 84.0914 147.001 85.6064 148.519C87.1214 150.037 90.395 152.066 90.4284 153.393C90.4417 153.911 94.1157 163.309 98.5873 174.574Z" fill="#2F2E41"/>
<path d="M58.3727 45.504L45.3936 46.4112L37.0047 54.532L34.0668 55.0573C31.4259 55.5291 29.0496 56.9552 27.3885 59.0653C25.7275 61.1755 24.8971 63.8229 25.0549 66.5056C25.6592 76.7627 27.0123 92.0887 29.8403 97.061C34.2255 104.771 37.8476 102.352 34.2255 104.771C30.6035 107.19 28.1717 105.289 29.8403 109.112C31.509 112.935 27.5851 117.839 27.5851 117.839L26.023 119.404L27.6798 120.084L80.4696 126.965C80.4696 126.965 75.905 106.406 78.7597 101.355C81.6143 96.3043 88.5357 81.0373 82.3585 75.0636L76.3186 53.7707L65.9293 50.7011L58.3727 45.504Z" fill="#8982FF"/>
<path d="M136.941 129.889C136.072 129.861 135.22 129.645 134.443 129.255C133.666 128.865 132.983 128.31 132.441 127.63C131.899 126.949 131.511 126.159 131.304 125.314C131.097 124.468 131.075 123.588 131.241 122.733L106.479 105.933L109.433 97.9285L138.699 118.098C140.114 118.485 141.338 119.378 142.14 120.609C142.941 121.84 143.264 123.322 143.047 124.775C142.831 126.229 142.089 127.552 140.964 128.495C139.839 129.437 138.407 129.933 136.941 129.889V129.889Z" fill="#FFB6B6"/>
<path d="M66.9989 52.7652L63.4006 54.1925L82.5955 91.7488L122.332 118.883L128.06 109.185L97.812 83.0112L85.7022 59.7445C83.9979 56.4702 81.143 53.9446 77.6888 52.6556C74.2346 51.3666 70.4261 51.4057 66.9989 52.7652Z" fill="#8982FF"/>
<path d="M51.2074 42.201C58.4053 42.201 64.2403 36.3555 64.2403 29.1447C64.2403 21.9339 58.4053 16.0884 51.2074 16.0884C44.0096 16.0884 38.1746 21.9339 38.1746 29.1447C38.1746 36.3555 44.0096 42.201 51.2074 42.201Z" fill="#FFB6B6"/>
<path d="M62.541 23.6231C62.3237 23.738 62.1094 23.8438 61.892 23.9496C61.6657 24.0585 61.4393 24.1674 61.2099 24.2702C56.8483 26.2508 53.2957 26.4715 51.1405 23.6231C51.0816 22.1245 50.7448 20.65 50.1475 19.2748C50.253 20.8116 49.8487 22.3403 48.9975 23.6231H44.657C40.1868 26.5955 37.8928 29.326 40.9957 39.0839C41.1979 39.7249 42.5834 62.5004 42.9788 64.2512C36.2116 61.6507 30.374 34.0401 30.2261 26.7648C30.217 26.6469 30.217 26.5229 30.217 26.402C30.2153 25.8192 30.2455 25.2367 30.3076 24.6572C30.3872 23.8661 30.5244 23.0818 30.7181 22.3107L30.7 22.3077C30.0114 21.6483 29.4862 20.8368 29.166 19.9381C28.8458 19.0393 28.7396 18.0781 28.8557 17.1309C29.991 15.6418 31.3958 14.3801 32.997 13.4116C34.4529 12.7053 35.9705 12.1344 37.5306 11.7062C37.5698 11.6971 37.603 11.688 37.6423 11.679C38.1192 11.5489 38.6082 11.431 39.0971 11.3282C40.1048 11.1165 41.1236 10.962 42.1487 10.8656C42.2242 10.8625 42.2966 10.8565 42.363 10.8565C42.7731 10.8567 43.1755 10.9674 43.5281 11.177C43.5312 11.177 43.5312 11.18 43.5372 11.18C43.876 11.3829 44.1571 11.6697 44.3532 12.0129C44.5493 12.356 44.654 12.744 44.657 13.1395H49.4925C49.6706 13.1395 49.8487 13.1455 50.0267 13.1546C56.7608 13.4237 62.1728 16.3084 62.5199 22.9397C62.535 23.1695 62.541 23.3933 62.541 23.6231Z" fill="#2F2E41"/>
<path d="M33.9531 24.1485C38.695 24.1485 42.5392 20.2974 42.5392 15.5469C42.5392 10.7964 38.695 6.94533 33.9531 6.94533C29.2111 6.94533 25.3669 10.7964 25.3669 15.5469C25.3669 20.2974 29.2111 24.1485 33.9531 24.1485Z" fill="#2F2E41"/>
<path d="M45.7407 11.5682C44.7653 16.2171 39.9527 18.9976 35.3486 17.8602C33.1377 17.314 31.2339 15.9103 30.056 13.9579C28.8781 12.0055 28.5227 9.66432 29.0679 7.4494C30.2033 2.83705 35.7909 4.16674 39.46 1.1574C44.6506 -3.09975 47.0562 5.29876 45.7407 11.5682Z" fill="#2F2E41"/>
<path d="M26.6638 140.976C33.9816 111.08 48.4811 85.3844 72.4942 65.2522C73.4235 63.7206 74.9214 62.6209 76.6591 62.1942C78.3968 61.7676 80.2325 62.0489 81.7634 62.9764L138.849 97.6508C140.377 98.5818 141.475 100.082 141.901 101.823C142.327 103.564 142.046 105.403 141.12 106.937C131.955 137.613 118.227 164.231 95.29 182.66C94.3606 184.192 92.8628 185.291 91.1251 185.718C89.3874 186.145 87.5517 185.863 86.0208 184.936L28.9356 150.261C27.4067 149.33 26.309 147.83 25.8831 146.089C25.4572 144.348 25.738 142.509 26.6638 140.976Z" fill="#F2F2F2"/>
<path opacity="0.2" d="M36.8101 151.051C35.2813 150.12 34.1835 148.619 33.7577 146.878C33.3318 145.138 33.6126 143.299 34.5385 141.765C41.8562 111.869 56.3557 86.1737 80.3687 66.0415C80.9839 65.0389 81.8525 64.217 82.8867 63.6588L81.7634 62.9764C80.2324 62.0489 78.3968 61.7676 76.6591 62.1942C74.9214 62.6208 73.4235 63.7205 72.4941 65.2521C48.4811 85.3844 33.9816 111.08 26.6639 140.976C25.738 142.509 25.4572 144.348 25.8831 146.089C26.3089 147.83 27.4067 149.33 28.9355 150.261L86.0207 184.936C87.0367 185.548 88.1963 185.881 89.3819 185.899C90.5676 185.918 91.7371 185.623 92.772 185.043L36.8101 151.051Z" fill="black"/>
<path d="M103.756 134.348L65.4382 111.219C64.8294 110.85 64.3916 110.255 64.2208 109.563C64.05 108.871 64.1602 108.14 64.5273 107.53C64.8944 106.919 65.4883 106.48 66.1786 106.308C66.8689 106.136 67.5991 106.245 68.2088 106.612L106.527 129.742C107.134 130.111 107.571 130.707 107.741 131.398C107.911 132.089 107.8 132.819 107.433 133.429C107.067 134.038 106.474 134.477 105.785 134.65C105.095 134.822 104.366 134.714 103.756 134.348L103.756 134.348Z" fill="white"/>
<path d="M81.4652 103.676L73.0352 98.5877C72.4243 98.2216 71.9836 97.6273 71.8101 96.9357C71.6365 96.244 71.7443 95.5116 72.1098 94.8996C72.4753 94.2876 73.0685 93.8461 73.7589 93.6722C74.4493 93.4983 75.1804 93.6063 75.7913 93.9725L75.8058 93.9813L84.2358 99.0698C84.8433 99.439 85.2798 100.034 85.4498 100.725C85.6199 101.417 85.5094 102.147 85.1427 102.757C84.776 103.366 84.183 103.805 83.4937 103.978C82.8043 104.15 82.0749 104.042 81.4652 103.676Z" fill="white"/>
<path d="M97.6661 144.474L59.3479 121.344C58.7384 120.977 58.2996 120.382 58.1278 119.69C57.9561 118.998 58.0654 118.267 58.4319 117.656C58.7983 117.045 59.3919 116.605 60.0821 116.432C60.7723 116.259 61.5028 116.368 62.113 116.735L62.1184 116.738L100.437 139.868C101.044 140.237 101.48 140.832 101.65 141.523C101.82 142.214 101.71 142.945 101.343 143.554C100.976 144.164 100.384 144.603 99.6943 144.775C99.005 144.948 98.2757 144.839 97.666 144.474L97.6661 144.474Z" fill="white"/>
<path d="M108.623 90.7369C114.804 90.7369 119.814 85.7171 119.814 79.5248C119.814 73.3325 114.804 68.3127 108.623 68.3127C102.441 68.3127 97.4305 73.3325 97.4305 79.5248C97.4305 85.7171 102.441 90.7369 108.623 90.7369Z" fill="#3F3D56"/>
<path d="M89.3303 199.666C102.542 199.666 113.251 188.937 113.251 175.702C113.251 162.467 102.542 151.738 89.3303 151.738C76.119 151.738 65.4091 162.467 65.4091 175.702C65.4091 188.937 76.119 199.666 89.3303 199.666Z" fill="white"/>
<path d="M89.3304 200C84.5333 200 79.8438 198.575 75.8551 195.905C71.8665 193.235 68.7577 189.44 66.9219 185C65.0861 180.56 64.6057 175.675 65.5416 170.961C66.4775 166.248 68.7875 161.918 72.1796 158.52C75.5717 155.122 79.8935 152.808 84.5984 151.87C89.3034 150.933 94.1802 151.414 98.6122 153.253C103.044 155.092 106.832 158.206 109.498 162.202C112.163 166.198 113.585 170.896 113.585 175.702C113.578 182.144 111.02 188.32 106.473 192.875C101.926 197.431 95.761 199.993 89.3304 200ZM89.3304 152.072C84.6653 152.072 80.1049 153.458 76.2259 156.054C72.347 158.651 69.3237 162.341 67.5384 166.659C65.7531 170.977 65.286 175.728 66.1962 180.312C67.1063 184.896 69.3528 189.106 72.6516 192.411C75.9504 195.715 80.1533 197.966 84.7288 198.878C89.3044 199.789 94.047 199.321 98.3571 197.533C102.667 195.744 106.351 192.716 108.943 188.83C111.535 184.944 112.918 180.375 112.918 175.702C112.911 169.437 110.423 163.43 106.001 159.001C101.579 154.571 95.584 152.079 89.3304 152.072Z" fill="#3F3D56"/>
<path d="M86.067 188.174C85.654 188.174 85.2465 188.078 84.8771 187.893C84.5076 187.708 84.1863 187.439 83.9385 187.108L77.4125 178.391C77.2025 178.111 77.0496 177.792 76.9626 177.453C76.8757 177.113 76.8563 176.76 76.9056 176.414C76.9549 176.067 77.0719 175.733 77.25 175.432C77.428 175.13 77.6637 174.867 77.9434 174.657C78.2231 174.447 78.5414 174.294 78.8801 174.207C79.2188 174.12 79.5713 174.101 79.9173 174.151C80.2634 174.201 80.5963 174.318 80.897 174.497C81.1978 174.675 81.4604 174.912 81.6699 175.192L85.9395 180.895L96.9053 164.416C97.0992 164.125 97.3484 163.875 97.6387 163.68C97.9291 163.485 98.2549 163.35 98.5975 163.281C98.9402 163.213 99.293 163.212 99.6358 163.28C99.9786 163.348 100.305 163.483 100.595 163.677C100.886 163.871 101.136 164.121 101.33 164.412C101.525 164.703 101.66 165.029 101.729 165.372C101.797 165.716 101.798 166.069 101.73 166.412C101.662 166.756 101.527 167.083 101.333 167.374L88.2813 186.987C88.0452 187.342 87.7276 187.635 87.3552 187.841C86.9829 188.048 86.5665 188.162 86.1411 188.173C86.1164 188.174 86.0917 188.174 86.067 188.174Z" fill="#8982FF"/>
<path d="M166.584 54.2624C167.534 54.181 168.259 53.5779 168.203 52.9155C168.146 52.253 167.33 51.782 166.379 51.8634C165.429 51.9449 164.704 52.5479 164.76 53.2103C164.817 53.8728 165.633 54.3438 166.584 54.2624Z" fill="white"/>
<path d="M177.279 50.6276C178.23 50.5462 178.954 49.9432 178.898 49.2807C178.841 48.6183 178.025 48.1472 177.074 48.2287C176.124 48.3101 175.399 48.9131 175.456 49.5756C175.512 50.238 176.329 50.709 177.279 50.6276Z" fill="#3F3D56"/>
<path d="M161.515 46.0876C162.465 46.0061 163.19 45.4031 163.133 44.7407C163.077 44.0782 162.26 43.6072 161.31 43.6886C160.359 43.77 159.634 44.3731 159.691 45.0355C159.748 45.698 160.564 46.169 161.515 46.0876Z" fill="#FF6584"/>
<path d="M157.028 43.4538C157.437 43.3612 157.661 42.8085 157.528 42.2193C157.395 41.6302 156.956 41.2276 156.547 41.3202C156.138 41.4128 155.914 41.9655 156.046 42.5547C156.179 43.1439 156.619 43.5464 157.028 43.4538Z" fill="#E6E6E6"/>
<path d="M153.834 37.0598C154.243 36.9671 154.467 36.4144 154.334 35.8253C154.201 35.2361 153.762 34.8335 153.353 34.9262C152.944 35.0188 152.72 35.5715 152.853 36.1606C152.986 36.7498 153.425 37.1524 153.834 37.0598Z" fill="#3F3D56"/>
<path d="M169.159 46.0393C169.568 45.9467 169.792 45.394 169.659 44.8048C169.526 44.2156 169.087 43.8131 168.678 43.9057C168.268 43.9983 168.045 44.551 168.177 45.1402C168.31 45.7293 168.75 46.1319 169.159 46.0393Z" fill="#E6E6E6"/>
<path d="M164.487 49.924C164.897 49.8314 165.12 49.2787 164.988 48.6896C164.855 48.1004 164.415 47.6978 164.006 47.7904C163.597 47.883 163.373 48.4357 163.506 49.0249C163.639 49.6141 164.078 50.0166 164.487 49.924Z" fill="#FF6584"/>
<path d="M172.992 53.0886C173.401 52.996 173.625 52.4433 173.492 51.8541C173.359 51.2649 172.92 50.8624 172.511 50.955C172.101 51.0476 171.877 51.6003 172.01 52.1895C172.143 52.7787 172.583 53.1812 172.992 53.0886Z" fill="#3F3D56"/>
<path d="M122.427 4.72821C122.59 4.08371 121.973 3.37091 121.048 3.13612C120.123 2.90134 119.241 3.23347 119.078 3.87797C118.915 4.52247 119.533 5.23527 120.458 5.47005C121.382 5.70484 122.264 5.3727 122.427 4.72821Z" fill="white"/>
<path d="M111.134 4.65494C111.297 4.01045 110.679 3.29765 109.755 3.06286C108.83 2.82807 107.948 3.16021 107.785 3.80471C107.622 4.44921 108.239 5.16202 109.164 5.39681C110.089 5.6316 110.971 5.29944 111.134 4.65494Z" fill="#3F3D56"/>
<path d="M124.547 14.1149C124.71 13.4705 124.092 12.7577 123.167 12.5229C122.243 12.2881 121.361 12.6202 121.198 13.2647C121.035 13.9092 121.652 14.622 122.577 14.8568C123.502 15.0916 124.384 14.7594 124.547 14.1149Z" fill="#FF6584"/>
<path d="M127.179 17.6544C127.246 17.0541 126.963 16.5296 126.546 16.4829C126.129 16.4363 125.737 16.8851 125.67 17.4854C125.603 18.0857 125.887 18.6101 126.303 18.6568C126.72 18.7035 127.112 18.2547 127.179 17.6544Z" fill="#E6E6E6"/>
<path d="M128.108 24.7437C128.175 24.1434 127.891 23.619 127.475 23.5723C127.058 23.5257 126.665 23.9745 126.599 24.5748C126.532 25.175 126.815 25.6995 127.232 25.7462C127.649 25.7928 128.041 25.344 128.108 24.7437Z" fill="#3F3D56"/>
<path d="M116.562 11.233C116.629 10.6327 116.345 10.1082 115.929 10.0615C115.512 10.0149 115.12 10.4637 115.053 11.064C114.986 11.6643 115.269 12.1887 115.686 12.2354C116.103 12.2821 116.495 11.8333 116.562 11.233Z" fill="#E6E6E6"/>
<path d="M122.245 9.09428C122.312 8.49398 122.029 7.96952 121.612 7.92286C121.195 7.8762 120.803 8.32501 120.736 8.9253C120.669 9.5256 120.953 10.0501 121.369 10.0967C121.786 10.1434 122.178 9.69457 122.245 9.09428Z" fill="#FF6584"/>
<path d="M115.244 3.31546C115.311 2.71516 115.027 2.1907 114.61 2.14404C114.193 2.09738 113.801 2.54618 113.734 3.14648C113.667 3.74677 113.951 4.27124 114.368 4.3179C114.784 4.36456 115.177 3.91575 115.244 3.31546Z" fill="#3F3D56"/>
<path d="M30.2227 141.293C29.3698 140.943 28.6029 140.411 27.9752 139.735C27.3475 139.059 26.8739 138.254 26.5871 137.376C26.3004 136.499 26.2074 135.569 26.3146 134.652C26.4217 133.735 26.7264 132.852 27.2077 132.064L8.81911 106.169L14.7183 99.3127L36.3342 130.229C37.5973 131.139 38.4832 132.482 38.8241 134.002C39.1651 135.523 38.9373 137.116 38.184 138.48C37.4307 139.844 36.2041 140.884 34.7368 141.402C33.2695 141.92 31.6634 141.881 30.2227 141.293H30.2227Z" fill="#FFB6B6"/>
<path d="M30.6456 59.2316C29.7153 58.6833 28.6204 58.485 27.5573 58.6725C26.4943 58.86 25.5328 59.421 24.8454 60.2546L0 95.0647L23.0252 127.826L32.035 118.131L18.0197 96.0676L36.6462 78.3012C38.1768 74.9419 38.4106 71.1335 37.3024 67.6117C36.1942 64.0898 33.8226 61.1042 30.6456 59.2316Z" fill="#8982FF"/>
</svg>
