<svg width="13" height="13" viewBox="0 0 13 13" fill="none" xmlns="http://www.w3.org/2000/svg">
<path d="M12.5674 0.0170255L0.22492 4.12149C0.161036 4.14262 0.105207 4.18283 0.0650005 4.23668C0.0247936 4.29053 0.00215244 4.3554 0.000145912 4.42252C-0.00185966 4.48964 0.0168667 4.55575 0.0537863 4.61189C0.0907059 4.66803 0.144034 4.71149 0.206543 4.73638L5.93835 7.02369L8.84266 12.8189C8.87221 12.8779 8.91894 12.9267 8.97673 12.9587C9.03452 12.9908 9.10066 13.0047 9.1665 12.9986C9.23234 12.9925 9.2948 12.9667 9.3457 12.9246C9.3966 12.8825 9.43356 12.826 9.45174 12.7626L12.9874 0.417126C13.0038 0.359773 13.0042 0.299046 12.9885 0.2415C12.9728 0.183954 12.9417 0.131774 12.8984 0.0905941C12.8552 0.0494139 12.8015 0.0207969 12.7432 0.00783157C12.6848 -0.00513372 12.624 -0.00195476 12.5674 0.0170255Z" fill="white"/>
</svg>
