<svg width="51" height="43" viewBox="0 0 51 43" fill="none" xmlns="http://www.w3.org/2000/svg">
<path d="M49.181 18.8125H46.5901C45.8173 17.1328 44.6931 15.6463 43.3054 14.4033L44.9653 8.0625H42.1549C39.5728 8.0625 37.2893 9.19629 35.7435 10.9432C35.076 10.8508 34.4173 10.75 33.7235 10.75H22.4817C15.6839 10.75 10.0191 15.3691 8.71044 21.5H4.91632C3.61648 21.5 2.58891 20.3662 2.85239 19.0812C3.04561 18.1238 3.98536 17.4688 5.00415 17.4688H5.09197C5.3818 17.4688 5.61893 17.242 5.61893 16.9648V15.2852C5.61893 15.008 5.3818 14.7812 5.09197 14.7812C2.58891 14.7812 0.35811 16.4945 0.0419335 18.8629C-0.344504 21.7352 1.99169 24.1875 4.91632 24.1875H8.42939C8.42939 28.5715 10.6602 32.4264 14.0503 34.8787V41.6562C14.0503 42.3953 14.6827 43 15.4555 43H21.0765C21.8493 43 22.4817 42.3953 22.4817 41.6562V37.625H33.7235V41.6562C33.7235 42.3953 34.3559 43 35.1287 43H40.7496C41.5225 43 42.1549 42.3953 42.1549 41.6562V34.8787C43.1912 34.1312 44.1134 33.2494 44.9039 32.25H49.181C49.9539 32.25 50.5863 31.6453 50.5863 30.9062V20.1562C50.5863 19.4172 49.9539 18.8125 49.181 18.8125ZM37.9392 24.1875C37.1663 24.1875 36.534 23.5828 36.534 22.8438C36.534 22.1047 37.1663 21.5 37.9392 21.5C38.7121 21.5 39.3444 22.1047 39.3444 22.8438C39.3444 23.5828 38.7121 24.1875 37.9392 24.1875ZM22.4817 8.0625H33.7235C34.1978 8.0625 34.6633 8.09609 35.12 8.12969C35.12 8.10449 35.1287 8.0877 35.1287 8.0625C35.1287 3.61133 31.3522 0 26.6974 0C22.0425 0 18.266 3.61133 18.266 8.0625C18.266 8.23887 18.3099 8.40684 18.3187 8.5832C19.6537 8.25566 21.0413 8.0625 22.4817 8.0625Z" fill="white"/>
</svg>
