<svg width="19" height="15" viewBox="0 0 19 15" fill="none" xmlns="http://www.w3.org/2000/svg">
<path d="M14.6745 6.49114C15.8772 6.32215 16.8032 5.29097 16.8058 4.04165C16.8058 2.81043 15.9083 1.7896 14.7314 1.59647" stroke="#8982FF" stroke-width="1.5" stroke-linecap="round" stroke-linejoin="round"/>
<path d="M16.2615 9.3832C17.4263 9.55736 18.2394 9.96518 18.2394 10.8058C18.2394 11.3844 17.8566 11.7603 17.2375 11.9965" stroke="#8982FF" stroke-width="1.5" stroke-linecap="round" stroke-linejoin="round"/>
<path fill-rule="evenodd" clip-rule="evenodd" d="M9.50049 9.73973C6.7294 9.73973 4.36268 10.1596 4.36268 11.8366C4.36268 13.5127 6.71474 13.9446 9.50049 13.9446C12.2716 13.9446 14.6374 13.5291 14.6374 11.8512C14.6374 10.1734 12.2862 9.73973 9.50049 9.73973Z" stroke="#8982FF" stroke-width="1.5" stroke-linecap="round" stroke-linejoin="round"/>
<path fill-rule="evenodd" clip-rule="evenodd" d="M9.50059 7.34604C11.319 7.34604 12.7933 5.87255 12.7933 4.05332C12.7933 2.23495 11.319 0.760599 9.50059 0.760599C7.68222 0.760599 6.20787 2.23495 6.20787 4.05332C6.20097 5.86565 7.66412 7.34 9.47645 7.34604H9.50059Z" stroke="#8982FF" stroke-width="1.5" stroke-linecap="round" stroke-linejoin="round"/>
<path d="M4.32586 6.49114C3.12224 6.32215 2.19711 5.29097 2.19452 4.04165C2.19452 2.81043 3.09207 1.7896 4.26896 1.59647" stroke="#8982FF" stroke-width="1.5" stroke-linecap="round" stroke-linejoin="round"/>
<path d="M2.73847 9.3832C1.57365 9.55736 0.760599 9.96518 0.760599 10.8058C0.760599 11.3844 1.14341 11.7603 1.76247 11.9965" stroke="#8982FF" stroke-width="1.5" stroke-linecap="round" stroke-linejoin="round"/>
</svg>
