<svg width="22" height="22" viewBox="0 0 22 22" fill="none" xmlns="http://www.w3.org/2000/svg">
<path d="M5.52753 14.0915L8.7172 9.94594L12.3556 12.804L15.477 8.77542" stroke="#8982FF" stroke-width="1.5" stroke-linecap="round" stroke-linejoin="round"/>
<circle cx="19.1156" cy="2.81584" r="2.04842" stroke="#8982FF" stroke-width="1.5" stroke-linecap="round" stroke-linejoin="round"/>
<path fill-rule="evenodd" clip-rule="evenodd" d="M13.7115 1.66525H5.9665C2.75731 1.66525 0.767424 3.93802 0.767424 7.1472V15.7603C0.767424 18.9695 2.7183 21.2325 5.9665 21.2325H15.1356C18.3448 21.2325 20.3347 18.9695 20.3347 15.7603V8.2592" fill="#EDECFF"/>
<path d="M13.7115 1.66525H5.9665C2.75731 1.66525 0.767424 3.93802 0.767424 7.1472V15.7603C0.767424 18.9695 2.7183 21.2325 5.9665 21.2325H15.1356C18.3448 21.2325 20.3347 18.9695 20.3347 15.7603V8.2592" stroke="#8982FF" stroke-width="1.5" stroke-linecap="round" stroke-linejoin="round"/>
</svg>
