<svg width="167" height="200" viewBox="0 0 167 200" fill="none" xmlns="http://www.w3.org/2000/svg">
<path d="M64.679 164.152C61.3561 160.708 56.5408 158.733 51.4678 158.733L51.2721 158.734C47.9306 158.735 44.6488 157.844 41.7622 156.153L41.4618 155.977L41.7038 155.727C43.0135 154.365 44.1072 152.809 44.9464 151.113C44.3503 151.671 43.6395 152.091 42.864 152.343C42.0886 152.595 41.2676 152.672 40.4591 152.57C39.6055 152.467 38.7861 152.172 38.0622 151.706C37.3383 151.24 36.7289 150.616 36.2795 149.879C34.5064 146.988 32.3929 142.886 32.3929 139.761C32.3956 137.119 32.946 134.507 34.0089 132.091C35.0718 129.675 36.6239 127.508 38.5662 125.729C39.7959 124.614 40.7781 123.252 41.4488 121.731C42.1195 120.209 42.4636 118.563 42.4587 116.899L42.4577 116.662C42.4574 114.472 42.7237 112.289 43.2509 110.163L43.3044 109.949L43.5242 109.956C44.9414 110.005 46.3593 109.885 47.7486 109.601C46.4454 109.44 45.1705 109.099 43.96 108.588L43.7236 108.492L43.8038 108.248C49.3346 104.807 61.8191 106.589 69.0655 89.9276C74.9414 76.4173 95.6733 101.921 95.6733 116.662C95.6733 118.166 94.192 120.154 95.3009 121.148C107.288 131.896 99.0171 138.797 96.4094 145.741C95.7907 147.389 97.1322 149.198 97.1322 150.98C97.1322 151.283 97.1246 151.595 97.1094 151.908L97.0863 152.39L96.6866 152.123C95.8959 151.602 95.163 150.998 94.5004 150.321C95.1878 151.911 95.5118 153.635 95.4485 155.367C95.3852 157.1 94.9361 158.795 94.1345 160.33C92.8783 162.713 91.6629 164.419 90.5223 165.4C86.8683 168.543 82.1579 170.164 77.3542 169.932C72.5505 169.7 68.0164 167.632 64.679 164.152H64.679Z" fill="#E6E6E6"/>
<path d="M84.748 200C84.8296 200 84.9085 199.97 84.9702 199.916C85.0319 199.862 85.0722 199.788 85.0837 199.707C85.0981 199.605 86.511 189.364 85.242 175.754C84.0702 163.185 80.3068 145.081 69.0332 130.212C69.0062 130.176 68.9725 130.146 68.9339 130.124C68.8954 130.101 68.8528 130.086 68.8085 130.08C68.7643 130.074 68.7194 130.077 68.6762 130.088C68.6331 130.1 68.5926 130.12 68.5571 130.147C68.5216 130.174 68.4918 130.208 68.4694 130.247C68.447 130.286 68.4324 130.328 68.4264 130.373C68.4205 130.417 68.4233 130.463 68.4347 130.506C68.4462 130.549 68.466 130.59 68.4931 130.626C79.6693 145.366 83.4023 163.337 84.5659 175.818C85.8275 189.349 84.4257 199.51 84.4114 199.611C84.4046 199.659 84.4082 199.708 84.422 199.755C84.4358 199.802 84.4594 199.846 84.4913 199.882C84.5232 199.919 84.5627 199.949 84.6069 199.969C84.6512 199.989 84.6993 200 84.748 200V200Z" fill="#3F3D56"/>
<path d="M75.5477 151.185C75.6194 151.185 75.6893 151.162 75.7474 151.12C75.8054 151.078 75.8486 151.018 75.8708 150.949C75.893 150.881 75.893 150.807 75.8709 150.738C75.8488 150.67 75.8056 150.61 75.7476 150.568C72.5353 148.383 69.0651 146.607 65.4168 145.283C59.7172 143.186 51.05 141.285 42.1273 144.139C42.0847 144.152 42.0452 144.174 42.011 144.203C41.9769 144.232 41.9487 144.267 41.9281 144.307C41.9076 144.347 41.8951 144.39 41.8913 144.435C41.8875 144.48 41.8925 144.525 41.906 144.567C41.9195 144.61 41.9413 144.65 41.9702 144.684C41.999 144.718 42.0342 144.747 42.0739 144.767C42.1136 144.788 42.1569 144.8 42.2014 144.804C42.2459 144.808 42.2907 144.802 42.3332 144.789C51.0731 141.993 59.5832 143.863 65.1834 145.924C68.773 147.225 72.1875 148.971 75.3484 151.12C75.4063 151.162 75.4761 151.185 75.5477 151.185Z" fill="#3F3D56"/>
<path d="M91.0878 112.29C91.0931 112.218 91.0755 112.146 91.0377 112.085C90.9998 112.024 90.9437 111.976 90.8773 111.949C90.8108 111.922 90.7376 111.916 90.6679 111.934C90.5983 111.951 90.5359 111.99 90.4897 112.045C88.0896 115.107 86.0777 118.458 84.5004 122.019C82.0087 127.581 79.4977 136.132 81.6876 145.281C81.698 145.325 81.7168 145.366 81.743 145.402C81.7692 145.439 81.8023 145.469 81.8403 145.493C81.8783 145.516 81.9206 145.532 81.9647 145.539C82.0087 145.546 82.0538 145.544 82.0971 145.534C82.1405 145.523 82.1814 145.504 82.2175 145.478C82.2536 145.451 82.2841 145.418 82.3074 145.38C82.3307 145.342 82.3462 145.299 82.3531 145.255C82.3601 145.211 82.3582 145.165 82.3477 145.122C80.2029 136.16 82.6714 127.765 85.1197 122.3C86.6702 118.795 88.6485 115.498 91.0088 112.485C91.055 112.43 91.0827 112.362 91.0878 112.29Z" fill="#3F3D56"/>
<path d="M156.577 199.639H129.548L129.432 199.427C129.086 198.797 128.753 198.13 128.441 197.444C125.657 191.454 124.48 184.603 123.442 178.559L122.66 174.003C122.565 173.451 122.637 172.883 122.865 172.373C123.093 171.862 123.468 171.431 123.941 171.136C124.414 170.84 124.964 170.693 125.521 170.714C126.078 170.734 126.616 170.921 127.066 171.251C131.174 174.255 135.283 177.255 139.394 180.253C140.95 181.392 142.728 182.709 144.43 184.132C144.595 183.331 144.766 182.527 144.938 181.734C145.057 181.186 145.335 180.687 145.738 180.299C146.14 179.912 146.649 179.654 147.198 179.558C147.747 179.463 148.313 179.534 148.821 179.763C149.33 179.993 149.759 180.369 150.054 180.845L153.216 185.951C155.522 189.68 157.558 193.354 157.143 197.317C157.145 197.365 157.142 197.413 157.133 197.461C157.05 198.112 156.896 198.751 156.674 199.369L156.577 199.639Z" fill="#F0F0F0"/>
<path d="M143.985 92.8518L138.768 73.4489C138.545 72.6275 138.009 71.9274 137.277 71.4995C136.544 71.0716 135.673 70.9504 134.853 71.1619C134.428 71.2713 134.03 71.4665 133.683 71.7356C133.336 72.0046 133.047 72.3419 132.834 72.7268C132.621 73.1117 132.488 73.5362 132.443 73.9744C132.399 74.4126 132.443 74.8554 132.575 75.2757L138.608 95.2636L141.764 107.564C141.305 107.917 140.964 108.404 140.789 108.958C140.614 109.512 140.613 110.106 140.786 110.661C140.959 111.216 141.298 111.704 141.756 112.058C142.215 112.413 142.771 112.617 143.348 112.643C143.926 112.668 144.498 112.515 144.986 112.203C145.474 111.891 145.855 111.435 146.076 110.898C146.298 110.361 146.349 109.769 146.224 109.201C146.099 108.634 145.803 108.119 145.376 107.726L143.985 92.8518Z" fill="#A0616A"/>
<path d="M100.091 88.673L115.94 76.415C116.61 75.8937 117.049 75.1285 117.163 74.2847C117.276 73.4409 117.055 72.586 116.547 71.9046C116.284 71.5521 115.953 71.257 115.572 71.0375C115.192 70.8179 114.772 70.6785 114.337 70.6276C113.901 70.5767 113.46 70.6154 113.04 70.7415C112.62 70.8675 112.23 71.0782 111.894 71.3607L95.8186 84.6009L85.7134 92.2324C85.2134 91.9403 84.6359 91.8099 84.0596 91.859C83.4832 91.9081 82.9358 92.1343 82.4919 92.507C82.0479 92.8796 81.7289 93.3805 81.578 93.9417C81.4272 94.5029 81.452 95.0972 81.6489 95.6438C81.8459 96.1903 82.2055 96.6627 82.6789 96.9967C83.1524 97.3308 83.7166 97.5102 84.295 97.5108C84.8735 97.5113 85.438 97.3328 85.9121 96.9997C86.3861 96.6665 86.7465 96.1948 86.9445 95.6486L100.091 88.673Z" fill="#A0616A"/>
<path d="M113.008 91.491L112.309 107.171L134.245 102.38C132.378 96.0794 131.108 95.0047 132.511 90.6199L113.008 91.491Z" fill="#A0616A"/>
<path d="M126.496 62.7449H119.187L116.048 68.1427L114.553 68.0597C113.821 68.0192 113.089 68.1289 112.401 68.3823C111.713 68.6357 111.084 69.0274 110.552 69.5334C110.02 70.0395 109.596 70.6493 109.306 71.3256C109.017 72.0019 108.867 72.7304 108.867 73.4666L110.71 76.3371C110.71 76.3371 107.414 82.1093 112.162 84.949C112.162 84.949 111.315 90.2993 112.162 90.2418C113.008 90.1843 114.959 89.0954 113.008 90.1843C111.058 91.2732 111.204 91.4194 111.456 91.6729L111.708 91.9265L132.216 95.3871C132.216 95.3871 132.816 91.3918 132.881 90.6791C132.945 89.9665 132.512 91.7087 132.945 89.9665C133.379 88.2242 134.029 88.8776 133.379 88.2242C132.729 87.5709 137.591 79.4767 135.593 76.3371L138.796 73.1974C138.796 70.1857 133.983 67.7443 130.986 67.7443H130.602L126.496 62.7449Z" fill="#E6E6E6"/>
<path d="M108.885 193.594H105.927L104.519 182.126L108.886 182.127L108.885 193.594Z" fill="#A0616A"/>
<path d="M99.9564 197.98C99.9578 198.313 100.09 198.632 100.324 198.868C100.558 199.104 100.875 199.237 101.207 199.239H106.776L106.948 198.88L107.736 197.247L108.041 198.88L108.108 199.239H110.209L110.179 198.878L109.619 192.127L108.886 192.082L105.72 191.894L104.943 191.846V193.862C104.353 194.492 99.7213 196.877 99.9564 197.98Z" fill="#2F2E41"/>
<path d="M152.851 185.807L150.363 187.415L143.006 178.536L146.678 176.162L152.851 185.807Z" fill="#A0616A"/>
<path d="M147.704 194.35C147.884 194.63 148.167 194.826 148.491 194.897C148.815 194.968 149.153 194.908 149.433 194.729L154.116 191.702L154.068 191.306L153.851 189.503L154.987 190.711L155.237 190.977L157.004 189.835L156.784 189.547L152.679 184.174L152.038 184.535L149.274 186.098L148.595 186.48L149.68 188.175C149.523 189.027 146.912 193.55 147.704 194.35Z" fill="#2F2E41"/>
<path d="M166.651 199.848L75.0476 199.938C74.9561 199.938 74.8686 199.901 74.8041 199.836C74.7396 199.77 74.7034 199.682 74.7034 199.59C74.7034 199.499 74.7396 199.41 74.8041 199.345C74.8686 199.28 74.9561 199.243 75.0476 199.243L166.651 199.153C166.743 199.154 166.83 199.19 166.895 199.256C166.959 199.321 166.996 199.409 166.996 199.501C166.996 199.593 166.959 199.681 166.895 199.746C166.83 199.811 166.743 199.848 166.651 199.848Z" fill="#CACACA"/>
<path d="M133.901 100.609C133.901 100.609 119.88 108.062 112.463 102.977C112.463 102.977 110.841 110.873 110.191 111.527C109.541 112.18 108.505 112.465 109.239 113.194C109.974 113.922 110.383 114.907 108.987 116.157C107.59 117.407 106.198 117.01 107.544 118.297C108.891 119.585 103.473 151.163 103.473 151.163C103.473 151.163 104.34 180.529 103.473 181.417C102.606 182.305 101.448 182.504 102.569 183.602C103.69 184.701 103.69 183.849 103.69 185.364V186.879L104.203 188.384H111.239C111.239 188.384 112.937 186.402 111.239 184.68C109.541 182.959 111.755 182.487 112.273 180.872C112.791 179.256 113.658 180.999 112.791 179.256C111.924 177.514 111.508 177.846 111.5 176.7C111.491 175.554 124.277 130.691 124.277 130.691L125.825 155.522L144.452 182.716L149.935 178.584C149.935 178.584 145.943 172.937 146.876 172.16C147.81 171.384 144.125 170.41 145.287 169.534C146.449 168.659 143.652 167.776 144.706 166.615C145.76 165.454 143.254 162.528 141.801 162.528C140.349 162.528 138.311 157.651 138.311 157.651L141.353 119.12L133.901 100.609Z" fill="#2F2E41"/>
<path d="M119.04 46.8954C118.94 47.0263 118.15 46.9558 117.199 46.8163C115.319 46.5405 115.063 46.8682 113.658 48.1528C111.623 50.0135 112.78 61.3629 111.78 63.822L111.456 64.0613C112.097 63.9383 112.727 63.7612 113.338 63.5321C113.684 62.4369 114.03 61.3383 114.379 60.244C114.708 61.0954 114.915 61.9895 114.993 62.8995C115.477 62.7078 115.958 62.239 117.98 61.6103C118.998 60.9162 126.364 60.2183 127.31 59.9129C129.714 51.6958 125.841 48.3728 119.04 46.8954Z" fill="#2F2E41"/>
<path d="M121.527 59.5663C125.414 59.5663 128.565 56.3994 128.565 52.4928C128.565 48.5862 125.414 45.4193 121.527 45.4193C117.639 45.4193 114.488 48.5862 114.488 52.4928C114.488 56.3994 117.639 59.5663 121.527 59.5663Z" fill="#A0616A"/>
<path d="M125.958 46.2719C125.561 46.2131 125.179 46.0786 124.833 45.8756C124.661 45.7714 124.522 45.6207 124.432 45.4409C124.341 45.261 124.303 45.0591 124.321 44.8584C124.408 44.3558 124.973 44.0557 125.48 44.0863C125.984 44.1594 126.463 44.3543 126.876 44.6543C126.831 44.1686 126.625 43.7123 126.29 43.3587C125.956 43.0052 125.513 42.7748 125.032 42.7046C125.699 42.6686 126.391 42.6367 127.008 42.8943C127.624 43.1519 128.137 43.7896 128.026 44.4509C129.062 44.3168 130.084 45.0422 130.511 45.9998C130.939 46.9575 130.854 48.0821 130.513 49.0741C130.479 49.226 130.413 49.3688 130.32 49.4929C130.226 49.617 130.107 49.7195 129.971 49.7934C129.622 49.9264 129.247 49.7034 128.945 49.4836C127.367 48.3354 125.931 47.0023 124.667 45.5126" fill="#2F2E41"/>
<path d="M129.027 60.0131C128.728 60.1542 128.884 60.6795 128.652 60.9147C128.551 61.0143 128.43 61.0902 128.296 61.1368C128.262 60.6984 128.16 60.268 127.995 59.8606C127.965 59.7866 127.915 59.7038 127.837 59.7104C127.746 59.7212 127.722 59.841 127.72 59.9303C127.702 60.3733 127.604 60.8093 127.432 61.2174C127.43 61.2218 127.427 61.2283 127.425 61.2326C127.358 61.2305 127.289 61.2283 127.224 61.2261C126.721 61.2065 125.607 59.9086 125.36 60.3485C126.231 58.7957 127.293 56.4611 127.456 54.6862C127.512 54.3146 127.485 53.935 127.375 53.5755C127.319 53.3966 127.212 53.2379 127.068 53.1183C126.924 52.9986 126.748 52.923 126.563 52.9004C126.471 52.8962 126.38 52.9124 126.295 52.9478C126.211 52.9832 126.135 53.0369 126.074 53.1052C126.012 53.1734 125.966 53.2545 125.94 53.3426C125.913 53.4307 125.906 53.5236 125.919 53.6147L125.794 53.5973C124.628 52.6434 125.633 50.9861 124.277 50.3306C123.817 50.1084 121.004 50.8511 120.508 50.7204C120.498 50.1951 120.391 49.6761 120.194 49.1894C120.164 49.1154 120.114 49.0326 120.036 49.0392C119.945 49.05 119.921 49.1698 119.919 49.2591C119.9 49.702 119.803 50.138 119.63 50.5462C118.943 50.4482 118.243 50.4852 117.57 50.6551C116.976 50.8119 116.412 51.0819 115.816 51.2257C115.522 51.3164 115.212 51.3458 114.906 51.3121C114.599 51.2784 114.303 51.1823 114.035 51.0296C113.279 50.52 113.147 49.392 113.524 48.56C113.797 48.0262 114.165 47.5477 114.612 47.1488C114.952 46.8178 115.305 46.4998 115.658 46.1819C115.975 45.8966 116.291 45.6113 116.607 45.326C117.006 44.9493 117.43 44.6014 117.877 44.285C118.591 43.8146 119.394 43.4959 120.235 43.3483C121.076 43.2008 121.938 43.2275 122.768 43.4269C123.765 43.6665 125.098 43.3289 126.01 43.7972C126.487 44.0433 127.542 44.9863 127.961 45.3216C129.031 46.1775 128.307 45.4801 129.478 45.975C132.269 47.1549 131.035 59.063 129.027 60.0131Z" fill="#2F2E41"/>
<path d="M51.0937 111.642C75.2013 111.642 94.7443 92.0019 94.7443 67.7747C94.7443 43.5474 75.2013 23.9074 51.0937 23.9074C26.9861 23.9074 7.44305 43.5474 7.44305 67.7747C7.44305 92.0019 26.9861 111.642 51.0937 111.642Z" fill="white"/>
<path d="M51.0935 112.08C26.7843 112.08 7.00721 92.2045 7.00721 67.7746C7.00721 43.3447 26.7843 23.4695 51.0935 23.4695C75.4028 23.4695 95.1799 43.3447 95.1799 67.7746C95.1799 92.2045 75.4028 112.08 51.0935 112.08ZM51.0935 24.3452C27.2648 24.3452 7.87864 43.8277 7.87864 67.7746C7.87864 91.7216 27.2648 111.204 51.0935 111.204C74.9223 111.204 94.3084 91.7216 94.3084 67.7746C94.3084 43.8276 74.9223 24.3452 51.0935 24.3452Z" fill="#8982FF"/>
<path d="M45.1386 90.6056C44.3849 90.6056 43.6414 90.4292 42.9673 90.0903C42.2931 89.7514 41.7067 89.2595 41.2546 88.6533L29.3461 72.6962C28.9635 72.1835 28.6852 71.6002 28.5269 70.9794C28.3687 70.3587 28.3337 69.7127 28.4239 69.0784C28.5141 68.444 28.7277 67.8337 29.0526 67.2824C29.3775 66.731 29.8072 66.2493 30.3174 65.8649C30.8275 65.4804 31.4079 65.2007 32.0256 65.0417C32.6433 64.8827 33.2861 64.8475 33.9173 64.9381C34.5485 65.0288 35.1558 65.2435 35.7044 65.57C36.2531 65.8965 36.7324 66.3284 37.1149 66.841L44.9059 77.2798L64.916 47.116C65.6308 46.04 66.7414 45.2933 68.0037 45.04C69.2661 44.7867 70.5768 45.0475 71.6479 45.7651C72.719 46.4827 73.4627 47.5983 73.7155 48.8668C73.9684 50.1352 73.7097 51.4527 72.9963 52.5295L49.1792 88.4325C48.7483 89.0818 48.1688 89.6179 47.4893 89.9957C46.8098 90.3735 46.0501 90.5821 45.2738 90.604C45.2287 90.6048 45.1837 90.6056 45.1386 90.6056Z" fill="#8982FF"/>
<path d="M96.0662 26.6482C96.1876 25.8095 95.3136 24.9874 94.1139 24.812C92.9143 24.6366 91.8433 25.1743 91.7219 26.0129C91.6005 26.8516 92.4745 27.6737 93.6742 27.8491C94.8738 28.0245 95.9448 27.4869 96.0662 26.6482Z" fill="#E6E6E6"/>
<path d="M110.349 25.2475C110.471 24.4088 109.597 23.5867 108.397 23.4113C107.197 23.2359 106.126 23.7736 106.005 24.6123C105.884 25.451 106.758 26.273 107.957 26.4484C109.157 26.6239 110.228 26.0862 110.349 25.2475Z" fill="#3F3D56"/>
<path d="M92.1553 15.0275C92.2767 14.1888 91.4026 13.3667 90.203 13.1913C89.0033 13.0159 87.9324 13.5536 87.811 14.3923C87.6896 15.231 88.5636 16.0531 89.7633 16.2285C90.9629 16.4039 92.0339 15.8662 92.1553 15.0275Z" fill="#FF6584"/>
<path d="M85.9492 10.2675C85.955 9.49753 85.5277 8.87008 84.9947 8.86603C84.4617 8.86198 84.025 9.48286 84.0192 10.2528C84.0134 11.0227 84.4407 11.6502 84.9737 11.6542C85.5067 11.6583 85.9434 11.0374 85.9492 10.2675Z" fill="#E6E6E6"/>
<path d="M83.8444 1.40142C83.8502 0.631478 83.4228 0.00403015 82.8899 -2.00327e-05C82.3569 -0.00407022 81.9201 0.616811 81.9143 1.38676C81.9085 2.1567 82.3359 2.78415 82.8689 2.7882C83.4018 2.79225 83.8386 2.17137 83.8444 1.40142Z" fill="#3F3D56"/>
<path d="M100.212 17.005C100.217 16.2351 99.7899 15.6076 99.257 15.6036C98.724 15.5995 98.2872 16.2204 98.2815 16.9904C98.2757 17.7603 98.703 18.3877 99.236 18.3918C99.769 18.3958 100.206 17.775 100.212 17.005Z" fill="#E6E6E6"/>
<path d="M93.309 20.4683C93.3148 19.6984 92.8874 19.0709 92.3544 19.0669C91.8215 19.0628 91.3847 19.6837 91.3789 20.4536C91.3731 21.2236 91.8005 21.851 92.3334 21.8551C92.8664 21.8591 93.3032 21.2382 93.309 20.4683Z" fill="#FF6584"/>
<path d="M102.917 26.8694C102.923 26.0995 102.496 25.472 101.963 25.468C101.43 25.4639 100.993 26.0848 100.987 26.8547C100.982 27.6247 101.409 28.2521 101.942 28.2562C102.475 28.2602 102.912 27.6394 102.917 26.8694Z" fill="#3F3D56"/>
<path d="M14.1524 130.571C14.2738 129.732 13.3998 128.91 12.2001 128.735C11.0005 128.56 9.92952 129.097 9.8081 129.936C9.68667 130.775 10.5607 131.597 11.7604 131.772C12.96 131.948 14.031 131.41 14.1524 130.571Z" fill="#E6E6E6"/>
<path d="M28.4356 129.17C28.557 128.332 27.6829 127.51 26.4833 127.334C25.2836 127.159 24.2127 127.697 24.0912 128.535C23.9698 129.374 24.8439 130.196 26.0435 130.371C27.2432 130.547 28.3141 130.009 28.4356 129.17Z" fill="#3F3D56"/>
<path d="M10.241 118.95C10.3624 118.112 9.48837 117.29 8.28872 117.114C7.08907 116.939 6.01812 117.476 5.8967 118.315C5.77528 119.154 6.64936 119.976 7.84901 120.151C9.04866 120.327 10.1196 119.789 10.241 118.95Z" fill="#FF6584"/>
<path d="M4.03446 114.19C4.04025 113.421 3.6129 112.793 3.07993 112.789C2.54696 112.785 2.1102 113.406 2.10441 114.176C2.09861 114.946 2.52598 115.573 3.05895 115.577C3.59192 115.581 4.02867 114.96 4.03446 114.19Z" fill="#E6E6E6"/>
<path d="M1.93012 105.324C1.93594 104.554 1.5086 103.927 0.975637 103.923C0.44267 103.919 0.00589618 104.54 7.40316e-05 105.31C-0.00574811 106.08 0.421586 106.707 0.954554 106.711C1.48752 106.715 1.92429 106.094 1.93012 105.324Z" fill="#3F3D56"/>
<path d="M18.2967 120.928C18.3025 120.158 17.8751 119.531 17.3422 119.526C16.8092 119.522 16.3724 120.143 16.3666 120.913C16.3609 121.683 16.7882 122.311 17.3212 122.315C17.8541 122.319 18.2909 121.698 18.2967 120.928Z" fill="#E6E6E6"/>
<path d="M11.3947 124.391C11.4005 123.621 10.9731 122.994 10.4402 122.99C9.90719 122.986 9.47043 123.607 9.46463 124.376C9.45884 125.146 9.88621 125.774 10.4192 125.778C10.9521 125.782 11.3889 125.161 11.3947 124.391Z" fill="#FF6584"/>
<path d="M21.0026 130.792C21.0084 130.022 20.581 129.395 20.0481 129.391C19.5151 129.387 19.0784 130.008 19.0726 130.778C19.0668 131.548 19.4941 132.175 20.0271 132.179C20.56 132.183 20.9968 131.562 21.0026 130.792Z" fill="#3F3D56"/>
</svg>
