<svg width="21" height="20" viewBox="0 0 21 20" fill="none" xmlns="http://www.w3.org/2000/svg">
<path d="M10.0615 20C4.50455 20 0 15.523 0 10C0 4.477 4.50455 0 10.0615 0C15.6185 0 20.1231 4.477 20.1231 10C20.1231 15.523 15.6185 20 10.0615 20ZM10.0615 18C12.1963 18 14.2437 17.1571 15.7532 15.6569C17.2627 14.1566 18.1108 12.1217 18.1108 10C18.1108 7.87827 17.2627 5.84344 15.7532 4.34315C14.2437 2.84285 12.1963 2 10.0615 2C7.92675 2 5.8794 2.84285 4.36987 4.34315C2.86035 5.84344 2.01231 7.87827 2.01231 10C2.01231 12.1217 2.86035 14.1566 4.36987 15.6569C5.8794 17.1571 7.92675 18 10.0615 18ZM6.54 12H12.0738C12.2073 12 12.3352 11.9473 12.4296 11.8536C12.5239 11.7598 12.5769 11.6326 12.5769 11.5C12.5769 11.3674 12.5239 11.2402 12.4296 11.1464C12.3352 11.0527 12.2073 11 12.0738 11H8.04923C7.38211 11 6.74231 10.7366 6.27059 10.2678C5.79886 9.79893 5.53385 9.16304 5.53385 8.5C5.53385 7.83696 5.79886 7.20107 6.27059 6.73223C6.74231 6.26339 7.38211 6 8.04923 6H9.05538V4H11.0677V6H13.5831V8H8.04923C7.91581 8 7.78785 8.05268 7.6935 8.14645C7.59916 8.24021 7.54615 8.36739 7.54615 8.5C7.54615 8.63261 7.59916 8.75979 7.6935 8.85355C7.78785 8.94732 7.91581 9 8.04923 9H12.0738C12.741 9 13.3808 9.26339 13.8525 9.73223C14.3242 10.2011 14.5892 10.837 14.5892 11.5C14.5892 12.163 14.3242 12.7989 13.8525 13.2678C13.3808 13.7366 12.741 14 12.0738 14H11.0677V16H9.05538V14H6.54V12Z" fill="#8982FF"/>
</svg>
