<svg width="280" height="154" viewBox="0 0 280 154" fill="none" xmlns="http://www.w3.org/2000/svg">
<path d="M237.656 102.238H163.345C158.283 102.238 153.428 104.25 149.849 107.83C146.269 111.41 144.258 116.265 144.258 121.328V153.143H150.246V135.587C150.246 130.525 152.257 125.669 155.836 122.089C159.416 118.509 164.27 116.498 169.332 116.498H231.668C236.73 116.498 241.585 118.509 245.164 122.089C248.744 125.669 250.755 130.525 250.755 135.587V153.143H256.742V121.328C256.742 116.265 254.732 111.41 251.152 107.83C247.573 104.25 242.718 102.238 237.656 102.238Z" fill="#F2F2F2"/>
<path d="M216.753 107.372C227.5 107.372 236.213 106.127 236.213 104.591C236.213 103.055 227.5 101.811 216.753 101.811C206.005 101.811 197.292 103.055 197.292 104.591C197.292 106.127 206.005 107.372 216.753 107.372Z" fill="#E6E6E6"/>
<path d="M231.464 105.288H205.544C199.145 99.1548 194.57 93.2439 198.233 88.3374C198.233 86.927 198.793 85.5744 199.79 84.5771C200.787 83.5798 202.139 83.0195 203.55 83.0195H233.458C234.868 83.0195 236.22 83.5798 237.217 84.5771C238.214 85.5744 238.775 86.927 238.775 88.3374C240.169 93.9281 237.678 99.5792 231.464 105.288Z" fill="#F2F2F2"/>
<path d="M226.809 76.325C226.563 76.3363 226.319 76.2717 226.111 76.14C225.903 76.0083 225.741 75.8158 225.646 75.5886C225.551 75.3614 225.528 75.1105 225.58 74.8699C225.633 74.6293 225.758 74.4106 225.939 74.2435L226.021 73.9163C226.01 73.8901 225.999 73.8639 225.988 73.8378C225.74 73.2525 225.325 72.7534 224.795 72.4034C224.264 72.0533 223.642 71.8678 223.007 71.8701C222.371 71.8725 221.751 72.0626 221.223 72.4166C220.695 72.7706 220.284 73.2728 220.04 73.8599C219.068 76.2033 217.829 78.5506 217.524 81.0283C217.39 82.1235 217.446 83.2337 217.692 84.3096C215.407 79.3246 214.22 73.9066 214.213 68.4228C214.212 67.0467 214.289 65.6716 214.442 64.3041C214.568 63.183 214.743 62.0698 214.968 60.9647C216.192 54.9683 218.822 49.3479 222.64 44.5652C224.488 43.5567 225.982 42.0059 226.922 40.1218C227.262 39.4445 227.503 38.7215 227.636 37.9753C227.428 38.0026 226.85 34.8273 227.007 34.6325C226.717 34.1916 226.197 33.9724 225.88 33.5421C224.302 31.4024 222.128 31.776 220.993 34.6838C218.568 35.9076 218.545 37.9373 220.032 39.8894C220.979 41.1313 221.109 42.8117 221.939 44.1413C221.854 44.2507 221.765 44.3567 221.68 44.4661C220.118 46.4746 218.757 48.6314 217.616 50.9056C217.893 48.3579 217.562 45.7807 216.649 43.386C215.724 41.1542 213.991 39.2746 212.464 37.3452C210.63 35.0277 206.869 36.0391 206.546 38.9769C206.543 39.0053 206.54 39.0338 206.537 39.0622C206.764 39.1901 206.986 39.326 207.203 39.4696C207.476 39.652 207.687 39.9125 207.81 40.217C207.932 40.5216 207.959 40.856 207.888 41.1765C207.817 41.4969 207.651 41.7884 207.412 42.0128C207.172 42.2372 206.871 42.384 206.546 42.434L206.513 42.4392C206.594 43.2566 206.737 44.0667 206.94 44.8625C204.982 52.4384 209.21 55.1977 215.248 55.3216C215.381 55.39 215.511 55.4583 215.645 55.5233C214.498 58.7728 213.779 62.1577 213.505 65.5927C213.35 67.6192 213.359 69.655 213.533 71.6801L213.522 71.6083C213.085 69.3565 211.884 67.3246 210.122 65.8558C207.505 63.7059 203.808 62.9142 200.985 61.1861C200.685 60.9934 200.336 60.8906 199.98 60.8898C199.623 60.8889 199.274 60.99 198.973 61.1812C198.672 61.3724 198.432 61.6457 198.281 61.9688C198.131 62.292 198.075 62.6515 198.122 63.005C198.126 63.0301 198.13 63.0553 198.134 63.0805C198.555 63.2519 198.964 63.4493 199.361 63.6717C199.587 63.7997 199.809 63.9355 200.027 64.0792C200.299 64.2615 200.511 64.522 200.633 64.8266C200.755 65.1312 200.783 65.4656 200.712 65.786C200.641 66.1064 200.475 66.398 200.235 66.6224C199.996 66.8468 199.694 66.9936 199.37 67.0436L199.337 67.0487C199.313 67.0521 199.292 67.0556 199.268 67.059C199.987 68.7761 200.997 70.3567 202.252 71.7314C203.476 78.3448 208.736 78.9722 214.363 77.0463H214.366C214.984 79.7295 215.878 82.3412 217.035 84.8394H226.57C226.604 84.7334 226.635 84.624 226.666 84.518C225.783 84.5735 224.897 84.5208 224.027 84.3609C224.735 83.4927 225.442 82.6177 226.15 81.7495C226.165 81.7333 226.18 81.7161 226.194 81.6982C226.553 81.2539 226.915 80.813 227.274 80.3686L227.274 80.3681C227.293 79.0061 227.137 77.6472 226.809 76.3251L226.809 76.325Z" fill="#F2F2F2"/>
<path d="M151.258 105.221L154.678 101.965L143.752 87.2244L138.705 92.0286L151.258 105.221Z" fill="#FFB6B6"/>
<path d="M147.913 103.94L153.065 98.4136L155.293 100.755L163.901 99.3981C164.326 99.331 164.762 99.4016 165.144 99.5996C165.526 99.7976 165.835 100.113 166.025 100.499C166.216 100.885 166.278 101.321 166.203 101.745C166.127 102.169 165.919 102.558 165.607 102.855L159.103 109.046L155.778 107.797L157.544 110.53L155.092 112.864L147.913 103.94Z" fill="#2F2E41"/>
<path d="M150.673 94.1108L145.969 100.527C141.987 98.4056 129.278 89.9865 119.544 85.5762C113.253 82.7187 108.398 80.5457 108.398 80.5457C108.398 80.5457 107.744 81.4739 106.7 82.9326C102.881 88.2797 93.8608 100.724 93.0011 100.262C91.9105 99.6755 90.6744 100.724 90.8284 102.871C90.9396 104.437 88.2922 105.579 86.8466 106.088C86.3034 106.276 85.9313 106.379 85.9313 106.379C85.6833 106.537 85.4352 106.695 85.1914 106.845C77.2747 111.683 67.998 110.318 61.6253 105.134C59.3427 103.292 57.4811 100.983 56.1657 98.361C54.8503 95.7394 54.1116 92.8663 53.9995 89.9352L53.4307 76.6744L72.677 75.8188L76.1028 82.3252L82.1804 77.3716L95.486 66.5277L100.345 62.5665C100.345 62.5665 100.216 62.5494 100.37 61.9676C100.979 61.6377 101.616 61.3629 102.274 61.1463C102.385 61.1078 102.496 61.0736 102.607 61.0437C108.873 59.1957 113.625 64.0038 113.625 64.0038C113.625 64.0038 142.688 83.6604 143.83 83.8443C144.972 84.0325 145.629 85.8671 145.766 86.3034C145.899 86.7141 147.718 89.0332 148.535 88.9776C151.084 88.8107 150.673 94.1108 150.673 94.1108Z" fill="#2F2E41"/>
<path d="M92.9758 54.3973C92.4394 54.5753 91.9489 54.8696 91.5394 55.259C91.1298 55.6485 90.8112 56.1235 90.6063 56.6503L72.9579 56.5532L63.5699 43.5654L56.5916 46.6555L67.9492 67.2376L92.8119 61.6902L92.7972 61.6382C93.3731 61.862 93.9943 61.9439 94.6085 61.877C95.2226 61.8101 95.8117 61.5963 96.3258 61.2537C96.8399 60.9111 97.2641 60.4497 97.5623 59.9086C97.8606 59.3675 98.0243 58.7625 98.0395 58.1448C98.0547 57.5271 97.9211 56.9148 97.6498 56.3596C97.3786 55.8045 96.9777 55.3228 96.4811 54.9552C95.9845 54.5877 95.4067 54.3451 94.7966 54.248C94.1864 54.1509 93.5619 54.202 92.9757 54.3972L92.9758 54.3973Z" fill="#FFB6B6"/>
<path d="M60.2728 34.7155L59.9063 34.7692C57.9921 35.0475 56.2629 36.0645 55.089 37.6022C53.9152 39.1399 53.3899 41.0761 53.6257 42.9964C53.9091 45.2675 54.0741 47.3 53.8259 47.7043C53.215 48.6993 52.9814 49.5331 54.1799 49.6577C55.3785 49.7824 52.8804 49.0485 56.6991 49.6871C60.5178 50.3256 59.8424 48.2963 62.9532 48.1623C66.064 48.0283 68.1629 48.8312 69.1428 47.0779C70.1226 45.3246 72.8549 45.2527 71.3542 43.53C69.8535 41.8074 69.4472 43.2952 68.2315 39.6423C68.2193 39.6058 68.2071 39.5694 68.1949 39.5333C67.6461 37.9304 66.5529 36.5706 65.1056 35.6904C63.6582 34.8102 61.9481 34.4652 60.2728 34.7155Z" fill="#6C63FF"/>
<path d="M49.9692 30.1808C49.5153 30.6232 49.0324 31.0348 48.5236 31.4128C48.3739 31.5283 48.2242 31.6352 48.0745 31.7336C43.7334 34.6724 39.4478 33.4147 36.1075 30.3476C30.9452 25.5994 28.0455 16.5178 30.7228 11.9065C36.7191 4.59164 44.5032 6.16153 49.2335 11.1322C53.827 15.9532 55.5464 23.9781 49.9692 30.1808Z" fill="#F2F2F2"/>
<path d="M68.8151 36.2715C68.4473 36.0363 68.0794 35.8096 67.7031 35.5914C67.5363 35.3647 67.3652 35.1422 67.1898 34.9241L68.8151 36.2715Z" fill="#F2F2F2"/>
<path d="M58.3276 16.868C64.0235 21.2015 70.3666 24.6505 71.5623 29.4196C71.5623 29.4196 70.8461 21.9263 74.1869 23.3466C79.8004 25.7331 77.9011 12.7546 76.3269 10.6323C73.7034 7.09524 64.8565 5.08545 64.8565 5.08545L58.5805 8.53124L58.3276 16.868Z" fill="#2F2E41"/>
<path d="M84.5574 152.218C84.6739 152.558 84.895 152.851 85.1888 153.057C85.4827 153.263 85.8342 153.371 86.1929 153.364L93.2004 153.184C93.5618 153.177 93.9111 153.053 94.1963 152.831C94.4814 152.609 94.6871 152.3 94.7825 151.952L95.7741 141.346C96.1259 141.506 96.5089 141.584 96.8951 141.577C97.2308 141.569 97.5617 141.494 97.8687 141.358C98.1758 141.222 98.453 141.027 98.6846 140.784C98.9161 140.54 99.0975 140.254 99.2182 139.941C99.339 139.627 99.3969 139.293 99.3884 138.957C99.38 138.621 99.3055 138.291 99.1691 137.984C99.0328 137.677 98.8373 137.4 98.5938 137.168C98.3504 136.937 98.0637 136.756 97.7502 136.635C97.4367 136.515 97.1025 136.457 96.7668 136.466C96.6125 136.466 96.4585 136.482 96.3076 136.514C96.1434 136.336 95.9439 136.195 95.7218 136.099C95.4998 136.003 95.2601 135.955 95.0183 135.958L84.2392 136.236C84.1497 136.239 84.0608 136.25 83.9733 136.269C83.7369 136.313 83.5127 136.407 83.3158 136.545C83.1188 136.683 82.9537 136.862 82.8316 137.069C82.7095 137.276 82.6331 137.507 82.6077 137.746C82.5823 137.985 82.6084 138.227 82.6842 138.456L84.5574 152.218ZM95.9774 140.626L96.6831 138.099C96.7633 137.807 96.7652 137.499 96.6885 137.206C96.7227 137.206 96.7529 137.19 96.7871 137.19C97.2709 137.18 97.7389 137.362 98.0884 137.697C98.438 138.031 98.6407 138.491 98.652 138.975C98.6633 139.459 98.4824 139.927 98.1489 140.278C97.8153 140.628 97.3564 140.832 96.8727 140.845C96.5599 140.855 96.2504 140.779 95.9774 140.626Z" fill="#CCCCCC"/>
<path d="M83.9734 136.269C84.203 137.582 86.7849 138.506 89.8895 138.345C92.7443 138.214 95.0786 137.211 95.5063 136.023C95.348 135.976 95.1834 135.954 95.0184 135.958L84.2393 136.236C84.1499 136.239 84.0609 136.25 83.9734 136.269Z" fill="white"/>
<path d="M68.2461 22.1268C73.6789 22.1268 78.0831 17.7219 78.0831 12.2882C78.0831 6.8544 73.6789 2.44946 68.2461 2.44946C62.8132 2.44946 58.4091 6.8544 58.4091 12.2882C58.4091 17.7219 62.8132 22.1268 68.2461 22.1268Z" fill="#FFB6B6"/>
<path d="M64.7031 8.52349L64.3246 10.1864L70.9418 11.6931C70.9476 11.3568 71.023 11.0253 71.163 10.7195C71.303 10.4136 71.5047 10.1401 71.7555 9.91591C71.6128 10.5679 71.629 11.2448 71.803 11.8892C75.3717 13.892 75.1666 14.6016 78.0508 14.0909C78.4416 14.1798 78.8517 14.1099 79.1909 13.8965C79.5301 13.683 79.7706 13.3436 79.8596 12.9527C81.0201 7.85436 81.4014 2.64347 76.3289 1.37797C75.0959 1.06963 73.8138 1.0106 72.5577 1.20434C71.3016 1.39808 70.0969 1.84068 69.014 2.50621C67.9312 3.17174 66.9922 4.0468 66.2519 5.08007C65.5116 6.11334 64.9851 7.28402 64.7031 8.52349Z" fill="#2F2E41"/>
<path d="M114.935 70.3823C114.912 70.3543 114.885 70.3294 114.855 70.3084C114.781 70.223 114.692 70.1529 114.591 70.1021L113.871 69.7167L109.093 64.4103C108.816 64.2661 108.494 64.2353 108.195 64.3244L108.183 64.3281L106.136 64.9613L104.375 65.5078L101.916 66.2703L85.1647 71.4581L74.1538 74.8678C73.8561 74.962 73.6073 75.1694 73.461 75.4452C73.3146 75.7211 73.2824 76.0434 73.3713 76.3427C73.4231 76.5076 73.5087 76.6598 73.6227 76.7896L73.9731 77.1796L74.708 77.9984L76.4108 81.5277L76.8832 82.0551C77.0337 82.2229 77.229 82.3444 77.446 82.4053C77.6631 82.4663 77.893 82.4641 78.1089 82.399L114.384 72.3102C114.572 72.2492 114.743 72.1428 114.88 72.0003C115.018 71.8578 115.119 71.6837 115.173 71.4932C115.228 71.3028 115.234 71.1018 115.193 70.9081C115.151 70.7144 115.063 70.5338 114.935 70.3823L114.935 70.3823Z" fill="#CCCCCC"/>
<path d="M112.781 17.8925L112.079 18.0064C111.886 18.0383 111.714 18.1451 111.6 18.3035L111.291 18.7364L108.499 25.7183C108.385 25.878 108.34 26.0762 108.372 26.2695L108.699 28.2588L107.463 63.766C107.494 63.9496 107.593 64.115 107.74 64.2297L113.16 71.4814L113.286 71.5819L113.559 71.7957C113.699 71.9038 113.873 71.9591 114.05 71.9516L114.51 71.9297C114.615 71.9246 114.717 71.8974 114.81 71.8498C114.904 71.8022 114.986 71.7354 115.051 71.6537C115.118 71.5727 115.166 71.4785 115.192 71.3774C115.219 71.2763 115.223 71.1707 115.205 71.0677L113.633 18.5C113.601 18.3069 113.494 18.1344 113.335 18.0203C113.176 17.9063 112.978 17.8601 112.785 17.8919L112.781 17.8925Z" fill="#CCCCCC"/>
<path d="M111.605 20.6514L109.132 28.1861L108.176 58.2809L112.025 61.7031L111.605 20.6514Z" fill="#6C63FF"/>
<path d="M62.4914 24.5602L59.3307 23.0786L56.2188 28.4944C56.2188 28.4944 47.8608 40.4235 47.7395 49.0294C47.6183 57.6353 49.1016 60.1945 49.1016 60.1945C49.1016 60.1945 45.498 62.8891 47.2998 64.5362C49.1016 66.1832 53.0906 66.8939 50.0269 67.608C46.9631 68.3221 47.7395 75.5511 51.1611 76.8344C54.5827 78.1177 72.9583 78.1065 72.9583 78.1065C72.7931 77.546 72.781 76.9515 72.9231 76.3848C73.0652 75.818 73.3564 75.2996 73.7666 74.8835C75.1911 73.4553 76.4742 74.4801 75.1911 72.2566C73.908 70.0332 71.7695 71.3165 73.4803 68.3221C75.1911 65.3277 75.1905 64.4329 75.1905 64.4329C75.1905 64.4329 74.2733 43.3193 69.0201 36.1175L69.132 35.9194C69.3065 33.576 68.7649 31.2349 67.579 29.2063C66.3931 27.1777 64.6188 25.5574 62.4914 24.5602Z" fill="#6C63FF"/>
<path d="M66.3215 15.1581C66.6455 13.7378 67.2806 12.4072 68.181 11.2622C69.0814 10.1172 70.2248 9.18636 71.5285 8.53684C72.8322 7.88731 74.2637 7.53531 75.7199 7.50621C77.1761 7.47711 78.6207 7.77163 79.9493 8.36854C79.489 7.01005 78.5576 5.86129 77.3237 5.13029L69.8753 1.89599C66.2013 1.05946 60.3854 -1.31486 57.7317 0.958866C55.2868 3.04761 56.4768 7.13628 54.2253 9.42613C51.7579 11.9356 51.5484 14.9029 52.2481 16.6095C53.0576 18.584 54.6771 21.2778 56.6981 21.8608C56.8033 21.1659 57.1499 20.5303 57.677 20.0656C57.5313 20.7278 57.5186 21.4124 57.6397 22.0796L69.8753 31.8398C68.7326 30.8457 67.759 28.2843 67.0884 25.3993C66.6915 23.6916 64.3233 23.0922 66.2439 20.194C68.1646 17.2957 66.0607 16.3039 66.3215 15.1581Z" fill="#2F2E41"/>
<path d="M61.7491 113.544H66.0261V147.337C66.0261 147.905 65.8008 148.449 65.3998 148.85C64.9987 149.251 64.4548 149.476 63.8876 149.476C63.3205 149.476 62.7765 149.251 62.3755 148.85C61.9744 148.449 61.7491 147.905 61.7491 147.337V113.544Z" fill="#F2F2F2"/>
<path d="M49.3372 152.994L55.3217 145.055C57.2206 142.537 59.0413 139.917 61.0474 137.488C61.7603 136.625 62.5882 135.732 63.6425 135.471C64.0578 135.365 64.4953 135.383 64.9001 135.525C65.3784 135.692 65.8196 135.95 66.1992 136.286C67.0811 137.103 67.8209 138.06 68.3885 139.12C69.1356 140.418 69.8262 141.75 70.4693 143.102C71.9266 146.182 73.1117 149.384 74.0113 152.671C74.4501 154.261 76.9265 153.586 76.4858 151.989C75.5952 148.774 74.4485 145.635 73.0569 142.603C72.3792 141.123 71.6419 139.672 70.8449 138.25C70.1809 136.988 69.3441 135.824 68.3588 134.793C67.3623 133.74 66.0343 133.061 64.5971 132.869C63.0551 132.701 61.6249 133.396 60.48 134.372C59.3299 135.353 58.4658 136.65 57.5625 137.848L54.3792 142.071L47.1214 151.699C46.7039 152.253 47.033 153.134 47.5817 153.455C47.8774 153.618 48.2247 153.662 48.5516 153.576C48.8785 153.49 49.1599 153.282 49.3372 152.994H49.3372Z" fill="#F2F2F2"/>
<path d="M90.4049 67.3448C89.8397 67.3443 89.2815 67.4686 88.7699 67.7087C88.2583 67.9489 87.806 68.299 87.4452 68.7341L70.7308 63.0671L65.9245 47.7786L58.3276 48.5061L62.6046 71.6225L87.9465 74.2127L87.949 74.1588C88.4247 74.5531 88.9882 74.827 89.5921 74.9575C90.196 75.088 90.8224 75.0712 91.4184 74.9086C92.0144 74.7459 92.5625 74.4421 93.0164 74.0229C93.4702 73.6037 93.8166 73.0814 94.0261 72.5001C94.2356 71.9189 94.3021 71.2957 94.2201 70.6832C94.138 70.0708 93.9098 69.4871 93.5546 68.9815C93.1995 68.4759 92.7279 68.0633 92.1796 67.7784C91.6314 67.4935 91.0227 67.3448 90.4049 67.3448L90.4049 67.3448Z" fill="#FFB6B6"/>
<path d="M65.591 38.3398L65.2263 38.275C63.3222 37.9345 61.3604 38.3531 59.761 39.4413C58.1616 40.5295 57.0518 42.2007 56.6692 44.0972C56.2209 46.3416 55.7357 48.3222 55.3725 48.6274C54.4787 49.3785 53.9937 50.0958 55.0915 50.5927C56.1894 51.0895 54.0509 49.6041 57.4725 51.4163C60.8941 53.2284 60.8941 51.0895 63.888 51.9451C66.8818 52.8006 68.6198 54.2254 70.1032 52.8714C71.5865 51.5173 74.2017 52.3122 73.3218 50.2037C72.4419 48.0952 71.5865 49.3785 71.5865 45.5285C71.5865 45.49 71.5864 45.4517 71.5862 45.4135C71.5717 43.7193 70.9639 42.0838 69.8685 40.7915C68.7732 39.4991 67.2596 38.6316 65.591 38.3398Z" fill="#6C63FF"/>
<path d="M183.393 111.222C192.723 111.222 200.287 109.977 200.287 108.441C200.287 106.906 192.723 105.661 183.393 105.661C174.062 105.661 166.499 106.906 166.499 108.441C166.499 109.977 174.062 111.222 183.393 111.222Z" fill="#E6E6E6"/>
<path d="M200.374 92.3823C200.38 96.4651 198.905 100.411 196.221 103.488C195.552 104.259 194.813 104.968 194.013 105.603C192.8 106.577 191.458 107.378 190.024 107.983H176.885C175.451 107.378 174.109 106.577 172.896 105.603C172.096 104.968 171.357 104.259 170.688 103.488C169.903 102.583 169.214 101.598 168.634 100.55C167.426 98.3566 166.719 95.9222 166.565 93.4226C166.412 90.9229 166.815 88.4203 167.745 86.0952C168.675 83.7701 170.11 81.6806 171.946 79.9773C173.781 78.2739 175.972 76.9993 178.36 76.2452C180.747 75.4912 183.273 75.2766 185.754 75.6169C188.234 75.9572 190.609 76.844 192.705 78.2132C194.802 79.5824 196.568 81.3999 197.878 83.5346C199.187 85.6694 200.006 88.0682 200.276 90.5579C200.342 91.1638 200.375 91.7729 200.374 92.3823Z" fill="#3F3D56"/>
<path d="M196.221 103.488C195.552 104.26 194.813 104.968 194.013 105.603H172.896C172.096 104.968 171.357 104.26 170.688 103.488H196.221Z" fill="#6C63FF"/>
<path d="M200.276 90.5579C196.742 96.0445 190.235 100.302 182.315 101.594C177.738 102.373 173.04 102.014 168.634 100.55C167.426 98.3566 166.719 95.9222 166.565 93.4226C166.412 90.9229 166.815 88.4203 167.745 86.0952C168.675 83.7701 170.11 81.6806 171.946 79.9773C173.781 78.2739 175.972 76.9993 178.36 76.2452C180.747 75.4912 183.273 75.2766 185.753 75.6169C188.234 75.9572 190.609 76.844 192.705 78.2132C194.802 79.5824 196.568 81.3999 197.878 83.5346C199.187 85.6694 200.006 88.0682 200.276 90.5579Z" fill="#6C63FF"/>
<path d="M145.188 116.403L148.937 113.533L139.654 97.7048L134.121 101.94L145.188 116.403Z" fill="#FFB6B6"/>
<path d="M142 114.771L147.715 109.829L149.679 112.395L158.383 111.97C158.813 111.949 159.238 112.066 159.597 112.304C159.956 112.542 160.229 112.888 160.377 113.292C160.525 113.696 160.54 114.137 160.42 114.551C160.299 114.964 160.05 115.328 159.708 115.589L152.578 121.047L149.406 119.449L150.869 122.355L148.18 124.413L142 114.771Z" fill="#2F2E41"/>
<path d="M145.798 105.294L140.433 111.169C136.701 108.632 124.969 98.8983 115.764 93.4692C109.815 89.9532 105.222 87.2719 105.222 87.2719C105.222 87.2719 104.472 88.1246 103.278 89.4629C98.9069 94.3694 88.6043 105.774 87.7991 105.222C86.7777 104.523 85.4363 105.432 85.3591 107.583C85.3018 109.152 82.5471 110.004 81.0553 110.355C80.495 110.483 80.1141 110.546 80.1141 110.546C79.8505 110.676 79.5869 110.807 79.3284 110.93C70.9386 114.891 61.8617 112.539 56.0819 106.7C54.0099 104.624 52.4067 102.129 51.38 99.3809C50.3534 96.6333 49.9271 93.6975 50.13 90.7713L50.9866 77.5259L70.2136 78.7401L72.9219 85.5764L79.4957 81.3035L93.8875 71.9495L99.1429 68.5325C99.1429 68.5325 99.0172 68.5017 99.2326 67.9398C99.8732 67.6771 100.536 67.4722 101.213 67.3274C101.328 67.3011 101.442 67.279 101.556 67.2611C107.983 66.096 112.192 71.3862 112.192 71.3862C112.192 71.3862 138.98 94.0473 140.096 94.3527C141.211 94.6624 141.667 96.5568 141.757 97.0053C141.844 97.4278 143.405 99.9287 144.223 99.9611C146.775 100.069 145.798 105.294 145.798 105.294Z" fill="#2F2E41"/>
<path d="M59.1942 120.346C55.1696 111.731 25.8211 120.06 23.8922 101.233C23.3618 95.7536 27.4677 91.0183 31.3683 87.1341C59.113 67.9444 4.94095 53.7638 25.9879 34.8179C29.1842 32.956 32.5783 31.4566 36.1072 30.3477C40.9786 28.9147 44.6141 29.1799 47.3684 30.6771C47.7695 30.8961 48.1553 31.1419 48.5232 31.4129C60.5928 40.3319 53.292 76.3671 65.9604 87.5576C70.7848 91.3647 92.1226 98.7395 95.5484 104.489C95.6389 104.644 95.7204 104.803 95.7922 104.968C96.9646 107.224 70.5207 113.371 72.6966 118.656C75.6905 125.929 58.9357 136.531 59.1942 120.346Z" fill="#F2F2F2"/>
<path d="M2.25379e-06 153.491C-0.000197082 153.558 0.0128282 153.624 0.0383367 153.686C0.0638453 153.748 0.101325 153.804 0.148628 153.851C0.195932 153.898 0.252132 153.936 0.313974 153.961C0.375817 153.987 0.442093 154 0.508988 154H279.491C279.626 154 279.755 153.946 279.851 153.851C279.946 153.755 280 153.626 280 153.491C280 153.356 279.946 153.226 279.851 153.131C279.755 153.035 279.626 152.982 279.491 152.982H0.508962C0.442069 152.981 0.375787 152.995 0.313948 153.02C0.252109 153.046 0.195929 153.083 0.148628 153.13C0.101328 153.178 0.0638445 153.234 0.0383367 153.296C0.012829 153.358 -0.000194795 153.424 2.25379e-06 153.491Z" fill="#CCCCCC"/>
<path d="M82.5338 75.2187C82.5338 77.9355 84.8274 83.1516 71.4137 83.1516C57.9999 83.1516 33.9583 77.9355 33.9583 75.2187C33.9583 72.5018 44.8323 70.2993 58.246 70.2993C71.6598 70.2993 82.5338 72.5018 82.5338 75.2187Z" fill="#F2F2F2"/>
</svg>
