<svg width="330" height="246" viewBox="0 0 330 246" fill="none" xmlns="http://www.w3.org/2000/svg">
<path d="M330 216.084H0V216.249H330V216.084Z" fill="#E0E0E0"/>
<path d="M283.615 224.704H264.878V224.869H283.615V224.704Z" fill="#E0E0E0"/>
<path d="M260.04 224.783H243.296V224.948H260.04V224.783Z" fill="#E0E0E0"/>
<path d="M182.569 220.961H160.03V221.126H182.569V220.961Z" fill="#E0E0E0"/>
<path d="M225.073 226.076H193.75V226.241H225.073V226.076Z" fill="#E0E0E0"/>
<path d="M94.2744 220.77H63.9474V220.935H94.2744V220.77Z" fill="#E0E0E0"/>
<path d="M108.24 220.77H97.9374V220.935H108.24V220.77Z" fill="#E0E0E0"/>
<path d="M67.7622 223.74H41.2236V223.905H67.7622V223.74Z" fill="#E0E0E0"/>
<path d="M156.42 186.648H28.9806C27.9823 186.646 27.0254 186.248 26.3201 185.542C25.6148 184.835 25.2186 183.878 25.2186 182.879V3.7356C25.2273 2.74298 25.6273 1.79387 26.3317 1.09443C27.0361 0.394984 27.988 0.00170042 28.9806 0L156.42 0C157.42 0 158.378 0.397048 159.085 1.1038C159.792 1.81055 160.189 2.76911 160.189 3.7686V182.879C160.189 183.879 159.792 184.837 159.085 185.544C158.378 186.251 157.42 186.648 156.42 186.648ZM28.9806 0.132C28.026 0.133748 27.1111 0.514184 26.4368 1.1898C25.7624 1.86542 25.3836 2.78101 25.3836 3.7356V182.879C25.3836 183.834 25.7624 184.75 26.4368 185.425C27.1111 186.101 28.026 186.481 28.9806 186.483H156.42C157.375 186.48 158.289 186.099 158.964 185.424C159.639 184.749 160.02 183.834 160.024 182.879V3.7356C160.02 2.78094 159.639 1.86637 158.964 1.19131C158.289 0.516259 157.375 0.135478 156.42 0.132H28.9806Z" fill="#E0E0E0"/>
<path d="M299.185 186.648H171.739C170.74 186.645 169.784 186.246 169.078 185.54C168.372 184.834 167.973 183.878 167.97 182.879V3.7356C167.98 2.74237 168.382 1.79327 169.087 1.09401C169.793 0.394752 170.745 0.00168187 171.739 0L299.185 0C300.176 0.00343497 301.126 0.397485 301.829 1.09674C302.532 1.796 302.931 2.74412 302.94 3.7356V182.879C302.941 183.373 302.844 183.863 302.656 184.32C302.468 184.776 302.191 185.192 301.843 185.541C301.494 185.891 301.08 186.169 300.624 186.359C300.168 186.549 299.679 186.647 299.185 186.648ZM171.739 0.132C170.784 0.135478 169.869 0.516259 169.194 1.19131C168.519 1.86637 168.138 2.78094 168.135 3.7356V182.879C168.138 183.834 168.519 184.749 169.194 185.424C169.869 186.099 170.784 186.48 171.739 186.483H299.185C300.139 186.48 301.054 186.099 301.729 185.424C302.404 184.749 302.785 183.834 302.788 182.879V3.7356C302.785 2.78094 302.404 1.86637 301.729 1.19131C301.054 0.516259 300.139 0.135478 299.185 0.132H171.739Z" fill="#E0E0E0"/>
<path d="M216.718 16.0182H47.0975V101.528H216.718V16.0182Z" fill="#E0E0E0"/>
<path d="M218.929 16.0182H49.3086V101.528H218.929V16.0182Z" fill="#EFEFEF"/>
<path d="M214.962 20.0244H53.2817V97.5084H214.962V20.0244Z" fill="#F4F4F4"/>
<path d="M65.2542 97.515L109.105 20.031H129.65L85.8065 97.515H65.2542Z" fill="white"/>
<path d="M92.7036 97.515L136.554 20.031H157.1L113.256 97.515H92.7036Z" fill="white"/>
<path d="M149.82 97.515L193.664 20.031H202.125L158.281 97.515H149.82Z" fill="white"/>
<path d="M162.327 20.0244H156.347V97.5084H162.327V20.0244Z" fill="#E0E0E0"/>
<path d="M107.481 20.0244H101.501V97.5084H107.481V20.0244Z" fill="#E0E0E0"/>
<path d="M164.426 17.0478H158.446V100.063H164.426V17.0478Z" fill="#F4F4F4"/>
<path d="M109.58 17.0478H103.6V100.063H109.58V17.0478Z" fill="#F4F4F4"/>
<path d="M214.962 20.0244H213.292V97.5084H214.962V20.0244Z" fill="#E0E0E0"/>
<path d="M258.614 126.773C258.614 126.773 246.51 105.91 263.3 89.3046C263.3 89.3046 267.683 92.1558 267.617 95.997C267.551 99.8382 262.924 100.808 263.914 104.016C264.904 107.224 269.28 110.365 266.416 113.012C263.551 115.658 266.871 118.021 266.68 121.262C266.488 124.502 258.614 126.773 258.614 126.773Z" fill="#E0E0E0"/>
<path d="M260.515 130.185C260.515 130.185 265.419 106.57 244.246 96.1026C244.246 96.1026 240.992 100.195 242.266 103.818C243.54 107.441 248.239 106.907 248.305 110.26C248.371 113.612 245.216 117.975 248.774 119.585C252.331 121.196 249.916 124.483 251.123 127.505C252.331 130.528 260.515 130.185 260.515 130.185Z" fill="#EBEBEB"/>
<path d="M249.737 124.186C249.737 124.186 249.949 134.033 258.093 134.033C266.237 134.033 266.455 124.186 266.455 124.186H249.737Z" fill="#F4F4F4"/>
<path d="M193.222 126.364C193.222 126.364 193.499 134.033 204.211 134.033C214.922 134.033 215.206 126.364 215.206 126.364H193.222Z" fill="#EBEBEB"/>
<path d="M218.084 128.264C218.084 128.264 218.295 134.033 226.347 134.033C234.399 134.033 234.604 128.264 234.604 128.264H218.084Z" fill="#EBEBEB"/>
<path d="M200.765 138.818H182.734V211.134H200.765V138.818Z" fill="#EBEBEB"/>
<path d="M275.108 211.127H186.193V216.084H275.108V211.127Z" fill="#EBEBEB"/>
<path d="M278.573 138.811H200.765V211.127H278.573V138.811Z" fill="#F4F4F4"/>
<path d="M271.484 145.807H207.854V171.455H271.484V145.807Z" fill="#EBEBEB"/>
<path d="M271.484 176.128H207.854V201.775H271.484V176.128Z" fill="#EBEBEB"/>
<path d="M246.84 148.619H232.525C232.058 148.619 231.611 148.434 231.281 148.105C230.951 147.776 230.764 147.329 230.762 146.863C230.766 146.397 230.953 145.951 231.282 145.621C231.612 145.291 232.058 145.104 232.525 145.101H246.84C247.306 145.104 247.753 145.291 248.082 145.621C248.412 145.951 248.599 146.397 248.602 146.863C248.6 147.329 248.414 147.776 248.084 148.105C247.753 148.434 247.306 148.619 246.84 148.619Z" fill="#F4F4F4"/>
<path d="M246.84 178.939H232.525C232.058 178.939 231.611 178.754 231.281 178.425C230.951 178.096 230.764 177.65 230.762 177.184C230.766 176.717 230.953 176.271 231.282 175.941C231.612 175.612 232.058 175.425 232.525 175.421H246.84C247.306 175.425 247.753 175.612 248.082 175.941C248.412 176.271 248.599 176.717 248.602 177.184C248.6 177.65 248.414 178.096 248.084 178.425C247.753 178.754 247.306 178.939 246.84 178.939Z" fill="#F4F4F4"/>
<path d="M280.969 134.033H200.759V138.818H280.969V134.033Z" fill="#EBEBEB"/>
<path d="M200.759 134.026H180.206V138.811H200.759V134.026Z" fill="#E0E0E0"/>
<path d="M276.949 28.0566H237.89V73.0554H276.949V28.0566Z" fill="#EBEBEB"/>
<path d="M281.384 28.0566H239.059V73.0554H281.384V28.0566Z" fill="#F4F4F4"/>
<path d="M277.84 31.6008H242.603V69.5046H277.84V31.6008Z" fill="white"/>
<path d="M266.191 40.788H254.252C252.535 40.788 251.143 42.1797 251.143 43.8966V57.2088C251.143 58.9256 252.535 60.3174 254.252 60.3174H266.191C267.908 60.3174 269.3 58.9256 269.3 57.2088V43.8966C269.3 42.1797 267.908 40.788 266.191 40.788Z" fill="#F4F4F4"/>
<path d="M177.599 174.187H173.065V216.084H177.599V174.187Z" fill="#E0E0E0"/>
<path opacity="0.5" d="M177.599 174.187H175.329V216.084H177.599V174.187Z" fill="#F4F4F4"/>
<path d="M157.74 185.922H154.625C154.966 185.633 155.241 185.273 155.429 184.867C155.617 184.462 155.714 184.02 155.714 183.572H118.8C118.801 184.02 118.899 184.462 119.088 184.868C119.277 185.274 119.553 185.634 119.896 185.922H116.82C115.717 185.922 114.66 186.36 113.88 187.14C113.1 187.92 112.662 188.977 112.662 190.08V202.204C112.662 203.307 113.1 204.365 113.88 205.144C114.66 205.924 115.717 206.362 116.82 206.362H157.74C158.843 206.362 159.9 205.924 160.68 205.144C161.46 204.365 161.898 203.307 161.898 202.204V190.08C161.898 188.977 161.46 187.92 160.68 187.14C159.9 186.36 158.843 185.922 157.74 185.922Z" fill="#F4F4F4"/>
<path d="M123.598 194.878H98.7756C97.2301 194.878 95.9772 196.131 95.9772 197.677V203.564C95.9772 205.109 97.2301 206.362 98.7756 206.362H123.598C125.144 206.362 126.397 205.109 126.397 203.564V197.677C126.397 196.131 125.144 194.878 123.598 194.878Z" fill="#EBEBEB"/>
<path d="M125.459 192.344H96.9144C96.3968 192.344 95.9772 192.763 95.9772 193.281V194.35C95.9772 194.868 96.3968 195.287 96.9144 195.287H125.459C125.977 195.287 126.397 194.868 126.397 194.35V193.281C126.397 192.763 125.977 192.344 125.459 192.344Z" fill="#E0E0E0"/>
<path d="M129.202 155.476C129.202 155.476 129.631 169.336 145.867 169.336C162.103 169.336 162.532 155.476 162.532 155.476H129.202Z" fill="#EBEBEB"/>
<path d="M71.1414 169.343H50.8926V174.187H71.1414V169.343Z" fill="#E0E0E0"/>
<path d="M193.314 169.343H71.1481V174.187H193.314V169.343Z" fill="#F4F4F4"/>
<path d="M71.1414 206.362H50.8926V211.207H71.1414V206.362Z" fill="#E0E0E0"/>
<path d="M55.4334 174.187H50.8992V216.084H55.4334V174.187Z" fill="#E0E0E0"/>
<path opacity="0.5" d="M55.4335 174.187H53.1631V216.084H55.4335V174.187Z" fill="#F4F4F4"/>
<path d="M73.4118 174.187H68.8776V216.084H73.4118V174.187Z" fill="#F4F4F4"/>
<path d="M71.148 174.187H68.8776V216.084H71.148V174.187Z" fill="#E0E0E0"/>
<path d="M193.307 174.187H188.773V216.084H193.307V174.187Z" fill="#F4F4F4"/>
<path d="M191.044 174.187H188.773V216.084H191.044V174.187Z" fill="#E0E0E0"/>
<path d="M193.314 206.362H71.1481V211.207H193.314V206.362Z" fill="#F4F4F4"/>
<path d="M103.726 166.485H79.0944V169.343H103.726V166.485Z" fill="#E0E0E0"/>
<path d="M112.55 166.478H103.726V169.336H112.55V166.478Z" fill="#EBEBEB"/>
<path d="M165 245.89C235.674 245.89 292.967 242.545 292.967 238.418C292.967 234.292 235.674 230.947 165 230.947C94.3255 230.947 37.0326 234.292 37.0326 238.418C37.0326 242.545 94.3255 245.89 165 245.89Z" fill="#F5F5F5"/>
<path d="M143.794 63.1619C143.84 70.9829 138.237 70.9037 138.349 68.4419C138.461 65.9801 137.075 60.1985 138.349 60.7595C139.623 61.3205 143.774 59.7035 143.794 63.1619Z" fill="#1A2E35"/>
<path d="M140.27 77.3256C141.042 77.2662 142.593 77.9856 142.732 80.025C142.768 80.6175 142.941 81.1936 143.237 81.7079C143.534 82.2221 143.946 82.6605 144.441 82.9884C144.441 82.9884 141.874 83.2986 140.191 81.9654C138.818 80.8896 138.211 78.5334 138.93 78.0054C139.325 77.6891 139.781 77.4577 140.27 77.3256Z" fill="#1A2E35"/>
<path d="M139.26 71.7684C140.58 72.9366 141.788 76.0254 138.811 77.4906C135.835 78.9558 131.155 75.5106 131.155 75.5106L136.297 73.128L139.26 71.7684Z" fill="#1A2E35"/>
<path d="M140.725 77.6094C140.653 77.1817 140.533 76.7633 140.369 76.362C140.356 76.3286 140.337 76.2979 140.313 76.2718C140.289 76.2457 140.259 76.2247 140.227 76.21C140.194 76.1953 140.159 76.1871 140.124 76.186C140.088 76.1849 140.052 76.1909 140.019 76.2036H139.966L138.138 77.4246C138.108 77.4445 138.083 77.47 138.064 77.4997C138.044 77.5294 138.03 77.5627 138.024 77.5976C138.017 77.6326 138.017 77.6685 138.024 77.7034C138.031 77.7382 138.045 77.7713 138.065 77.8008C138.086 77.8282 138.111 77.8526 138.138 77.8734C138.402 78.0652 138.685 78.2289 138.983 78.3618C139.412 78.5334 140.303 78.045 140.606 77.8338C140.644 77.8104 140.675 77.7772 140.696 77.7378C140.717 77.6983 140.727 77.654 140.725 77.6094Z" fill="#8982FF"/>
<path opacity="0.3" d="M140.725 77.6094C140.653 77.1817 140.533 76.7633 140.369 76.362C140.356 76.3286 140.337 76.2979 140.313 76.2718C140.289 76.2457 140.259 76.2247 140.227 76.21C140.194 76.1953 140.159 76.1871 140.124 76.186C140.088 76.1849 140.052 76.1909 140.019 76.2036H139.966L138.138 77.4246C138.108 77.4445 138.083 77.47 138.064 77.4997C138.044 77.5294 138.03 77.5627 138.024 77.5976C138.017 77.6326 138.017 77.6685 138.024 77.7034C138.031 77.7382 138.045 77.7713 138.065 77.8008C138.086 77.8282 138.111 77.8526 138.138 77.8734C138.402 78.0652 138.685 78.2289 138.983 78.3618C139.412 78.5334 140.303 78.045 140.606 77.8338C140.644 77.8104 140.675 77.7772 140.696 77.7378C140.717 77.6983 140.727 77.654 140.725 77.6094Z" fill="black"/>
<path d="M121.051 74.3688C120.318 74.1246 118.642 74.4546 118.021 76.4082C117.844 76.9748 117.539 77.4929 117.129 77.9222C116.72 78.3515 116.216 78.6804 115.658 78.8832C115.658 78.8832 118.081 79.794 120.034 78.8832C121.618 78.1638 122.74 76.0122 122.192 75.3258C121.882 74.9313 121.493 74.6054 121.051 74.3688Z" fill="#1A2E35"/>
<path d="M128.324 60.9377C125.651 61.6637 122.054 64.8317 123.651 68.7191C122.074 69.7949 120.054 72.8903 122.417 74.8703C124.958 77.0021 131.208 74.0123 131.208 74.0123L131.254 72.9959L132 65.4323L128.324 60.9377Z" fill="#1A2E35"/>
<path d="M120.542 74.5404C120.718 74.14 120.94 73.7613 121.202 73.4118C121.249 73.355 121.316 73.3189 121.389 73.3115C121.462 73.3041 121.535 73.3259 121.592 73.3721L121.631 73.4118L123.11 75.0288C123.135 75.0539 123.155 75.0837 123.169 75.1166C123.182 75.1494 123.189 75.1846 123.189 75.2202C123.189 75.2557 123.182 75.2909 123.169 75.3237C123.155 75.3566 123.135 75.3864 123.11 75.4116C123.089 75.4365 123.062 75.4549 123.031 75.4643C122.731 75.5874 122.419 75.6781 122.1 75.7349C121.638 75.8009 120.925 75.1212 120.648 74.844C120.602 74.81 120.567 74.7627 120.548 74.7085C120.529 74.6543 120.527 74.5957 120.542 74.5404Z" fill="#8982FF"/>
<path opacity="0.3" d="M120.542 74.5404C120.718 74.14 120.94 73.7613 121.202 73.4118C121.249 73.355 121.316 73.3189 121.389 73.3115C121.462 73.3041 121.535 73.3259 121.592 73.3721L121.631 73.4118L123.11 75.0288C123.135 75.0539 123.155 75.0837 123.169 75.1166C123.182 75.1494 123.189 75.1846 123.189 75.2202C123.189 75.2557 123.182 75.2909 123.169 75.3237C123.155 75.3566 123.135 75.3864 123.11 75.4116C123.089 75.4365 123.062 75.4549 123.031 75.4643C122.731 75.5874 122.419 75.6781 122.1 75.7349C121.638 75.8009 120.925 75.1212 120.648 74.844C120.602 74.81 120.567 74.7627 120.548 74.7085C120.529 74.6543 120.527 74.5957 120.542 74.5404Z" fill="black"/>
<path d="M144.593 88.4861C145.853 89.4629 147.233 90.5057 148.619 91.4561C150.005 92.4065 151.397 93.3635 152.83 94.2413C154.262 95.1191 155.714 95.9375 157.179 96.7163L158.281 97.2773L159.403 97.7987C159.773 97.9769 160.149 98.1353 160.532 98.2805L161.093 98.5115C161.284 98.5841 161.489 98.6765 161.608 98.7095C162.298 98.9199 163.004 99.0722 163.72 99.1649C164.498 99.2771 165.317 99.3563 166.148 99.4157C167.805 99.5213 169.508 99.5675 171.217 99.5741C172.927 99.5807 174.656 99.5741 176.378 99.5213L181.559 99.3761L181.883 101.97C178.416 102.668 174.916 103.186 171.395 103.521C169.62 103.679 167.838 103.798 166.016 103.811C165.106 103.811 164.182 103.811 163.231 103.726C162.209 103.666 161.196 103.501 160.208 103.231C159.905 103.151 159.713 103.072 159.489 103L158.829 102.769C158.387 102.623 157.951 102.465 157.509 102.287L156.229 101.772L154.975 101.218C153.317 100.471 151.702 99.634 150.137 98.7095C148.579 97.7921 147.048 96.8417 145.57 95.8253C144.06 94.8029 142.606 93.7014 141.214 92.5253L144.593 88.4861Z" fill="#FD897B"/>
<path d="M137.742 85.5227C139.385 84.2423 146.15 88.4333 148.21 90.1823L146.711 99.2441C146.711 99.2441 136.976 95.1653 136.389 92.3801C135.782 89.4695 136.501 86.4995 137.742 85.5227Z" fill="#1A2E35"/>
<path d="M180.84 99.6006L184.919 96.4391L185.242 101.33C185.242 101.33 182.431 103.072 180.576 101.99L180.84 99.6006Z" fill="#FD897B"/>
<path d="M188.555 95.9574L190.641 98.2806L185.216 101.33L184.892 96.4392L188.555 95.9574Z" fill="#FD897B"/>
<path d="M111.065 231.97L116.206 232.353L118.081 220.519L112.946 220.136L111.065 231.97Z" fill="#FD897B"/>
<path d="M74.6923 215.431L79.0549 218.176L86.8231 208.963L82.4605 206.21L74.6923 215.431Z" fill="#FD897B"/>
<path d="M80.4342 217.193L76.3488 213.081C76.2783 213.011 76.1848 212.968 76.0855 212.961C75.9862 212.953 75.8876 212.982 75.8076 213.041L72.0918 215.82C71.9204 215.958 71.811 216.159 71.7875 216.378C71.764 216.597 71.8283 216.817 71.9664 216.988L72.0258 217.054C73.4712 218.46 74.2434 219.067 76.0386 220.876C77.1408 221.991 78.639 223.727 80.1636 225.265C81.6882 226.802 83.2854 225.37 82.8036 224.605C80.5728 221.126 80.9754 219.826 80.8236 218.057C80.8053 217.731 80.6666 217.423 80.4342 217.193Z" fill="#1A2E35"/>
<path d="M116.549 231.614H110.755C110.653 231.614 110.554 231.649 110.476 231.714C110.397 231.779 110.344 231.87 110.326 231.97L109.408 236.551C109.371 236.752 109.415 236.959 109.53 237.128C109.645 237.298 109.821 237.415 110.022 237.455C110.083 237.461 110.145 237.461 110.207 237.455C112.226 237.455 113.21 237.303 115.757 237.303C117.322 237.303 121.697 237.461 123.882 237.461C126.067 237.461 126.284 235.323 125.393 235.132C121.433 234.26 118.708 233.066 117.407 231.917C117.168 231.715 116.863 231.606 116.549 231.614Z" fill="#1A2E35"/>
<path d="M118.081 220.519L117.038 227.093L111.969 226.241L112.939 220.143L118.081 220.519Z" fill="#E77064"/>
<path d="M82.4604 206.217L86.823 208.963L83.6088 212.777L79.1472 210.144L82.4604 206.217Z" fill="#E77064"/>
<path d="M114.972 112.946L135.524 116.952C146.144 88.1958 143.834 87.252 143.834 87.252C142.341 86.4306 140.798 85.7032 139.214 85.074L138.937 84.9684C137.617 84.4866 137.353 84.414 135.597 83.8992C132.574 83.1798 129.756 82.5792 126.265 82.0842L125.605 81.9918C124.945 81.9126 124.344 81.8466 123.737 81.7872C123.328 81.741 122.918 81.7146 122.529 81.6882L121.209 81.6156C118.952 81.5034 117.335 81.5364 117.335 81.5364C117.962 99.495 116.945 104.65 114.972 112.946Z" fill="#1A2E35"/>
<path d="M129.235 71.7684C129.235 74.8836 128.753 80.5002 126.258 82.0974C126.258 82.0974 126.489 85.305 132.066 86.3874C138.204 87.582 135.59 83.9124 135.59 83.9124C132.403 82.4604 132.95 79.992 134.006 77.7744L129.235 71.7684Z" fill="#FD897B"/>
<path d="M131.182 74.217L134.006 77.7744C133.761 78.2896 133.558 78.8237 133.399 79.3716C132.152 78.936 130.667 77.1936 130.759 75.8274C130.8 75.2692 130.943 74.7232 131.182 74.217Z" fill="#E77064"/>
<path d="M128.938 64.614C128.278 69.6894 127.875 71.8212 129.908 74.8902C132.964 79.5102 139.339 79.2132 141.511 74.4414C143.491 70.1448 144.23 62.5614 139.709 59.6244C138.944 59.1191 138.087 58.7696 137.187 58.5957C136.287 58.4218 135.362 58.4269 134.464 58.6108C133.566 58.7946 132.713 59.1537 131.954 59.6673C131.195 60.181 130.544 60.8392 130.04 61.6044C129.446 62.5095 129.069 63.5394 128.938 64.614Z" fill="#FD897B"/>
<path d="M145.457 56.5751C145.55 57.38 145.49 58.1952 145.279 58.9775C145.232 58.712 145.168 58.4497 145.088 58.1921C143.279 52.2125 135.135 53.6381 132.68 56.2121C128.72 55.0769 124.951 55.9811 125.453 60.8321C125.515 62.0819 125.965 63.2813 126.74 64.2641C126.126 65.9669 126.74 68.6795 128.766 68.7587C131.617 68.8709 134.323 65.0957 135.412 63.0233C137.392 63.3599 140.243 63.6833 142.408 63.1553C142.771 63.3731 143.068 63.5249 143.068 63.5249C145.372 62.2907 147.127 61.0961 145.457 56.5751Z" fill="#1A2E35"/>
<path d="M127.182 68.079C127.103 69.0637 127.413 70.0401 128.047 70.7982C128.905 71.7948 130.027 71.2074 130.429 70.026C130.766 68.9568 130.72 67.155 129.571 66.594C129.372 66.5003 129.156 66.4468 128.936 66.4366C128.716 66.4263 128.496 66.4595 128.289 66.5343C128.082 66.6091 127.891 66.724 127.729 66.8724C127.566 67.0208 127.434 67.1998 127.34 67.3992C127.241 67.6125 127.187 67.8439 127.182 68.079Z" fill="#FD897B"/>
<path d="M135.214 116.952C135.214 116.952 135.293 157.753 131.954 173.118C128.482 189.103 118.272 225.469 118.272 225.469L110.88 224.512C110.88 224.512 116.668 187.777 119.13 171.89C121.816 154.579 120.173 114.022 120.173 114.022L135.214 116.952Z" fill="#8982FF"/>
<path opacity="0.3" d="M135.214 116.952C135.214 116.952 135.293 157.753 131.954 173.118C128.482 189.103 118.272 225.469 118.272 225.469L110.88 224.512C110.88 224.512 116.668 187.777 119.13 171.89C121.816 154.579 120.173 114.022 120.173 114.022L135.214 116.952Z" fill="black"/>
<path d="M119.533 226.109L109.613 224.829L110.035 221.318L121.295 222.638L119.533 226.109Z" fill="#1A2E35"/>
<path d="M130.099 115.896C130.099 115.896 119.031 149.615 113.533 169.039C107.738 189.532 85.5228 212.197 85.5228 212.197L79.1538 208.514C79.1538 208.514 94.3338 186.998 99.9108 167.878C111.269 129.063 106.603 120.839 114.972 112.946L130.099 115.896Z" fill="#8982FF"/>
<path opacity="0.3" d="M130.099 115.896C130.099 115.896 119.031 149.615 113.533 169.039C107.738 189.532 85.5228 212.197 85.5228 212.197L79.1538 208.514C79.1538 208.514 94.3338 186.998 99.9108 167.878C111.269 129.063 106.603 120.839 114.972 112.946L130.099 115.896Z" fill="black"/>
<path d="M86.559 213.22L77.7084 208.111L79.9128 204.956L89.7402 210.375L86.559 213.22Z" fill="#1A2E35"/>
<path d="M136.264 67.4982C136.184 67.9074 136.336 68.277 136.607 68.3298C136.877 68.3826 137.155 68.0922 137.267 67.6698C137.379 67.2474 137.194 66.8844 136.924 66.8316C136.653 66.7788 136.343 67.089 136.264 67.4982Z" fill="#1A2E35"/>
<path d="M140.877 68.3957C140.798 68.8049 140.95 69.1811 141.22 69.2339C141.491 69.2867 141.768 68.9963 141.847 68.5739C141.926 68.1515 141.775 67.7885 141.504 67.7423C141.233 67.6961 140.956 67.9799 140.877 68.3957Z" fill="#1A2E35"/>
<path d="M141.385 67.749L142.421 67.6631C142.421 67.6631 141.768 68.3298 141.385 67.749Z" fill="#1A2E35"/>
<path d="M139.524 68.8644C139.706 69.865 140.026 70.8355 140.474 71.7486C140.238 71.8593 139.98 71.9168 139.719 71.9168C139.458 71.9168 139.2 71.8593 138.963 71.7486L139.524 68.8644Z" fill="#FD5652"/>
<path d="M137.234 73.0686C136.682 72.9782 136.161 72.7558 135.713 72.4202C135.266 72.0846 134.907 71.6459 134.666 71.1414C134.66 71.1271 134.656 71.1116 134.655 71.0959C134.655 71.0802 134.657 71.0645 134.663 71.0497C134.668 71.035 134.677 71.0215 134.688 71.01C134.698 70.9986 134.711 70.9894 134.726 70.983C134.756 70.9718 134.789 70.9724 134.818 70.9846C134.847 70.9969 134.871 71.0199 134.884 71.049C135.115 71.5126 135.451 71.9155 135.866 72.2251C136.281 72.5346 136.763 72.7422 137.273 72.831C137.289 72.8333 137.304 72.8389 137.318 72.8472C137.331 72.8555 137.343 72.8664 137.352 72.8794C137.361 72.8923 137.368 72.9069 137.371 72.9224C137.375 72.9379 137.375 72.9539 137.372 72.9696C137.366 73.0005 137.348 73.0278 137.322 73.0462C137.297 73.0646 137.265 73.0725 137.234 73.0686Z" fill="#1A2E35"/>
<path d="M135.214 65.7426C135.15 65.7394 135.09 65.7126 135.045 65.6675C135 65.6224 134.973 65.5621 134.97 65.4984C134.973 65.4311 135.001 65.3673 135.049 65.3202C135.332 65.0544 135.674 64.86 136.047 64.7532C136.42 64.6464 136.814 64.6304 137.194 64.7064C137.257 64.7248 137.309 64.7668 137.341 64.8235C137.373 64.8801 137.382 64.947 137.366 65.01C137.358 65.0404 137.344 65.069 137.326 65.0941C137.307 65.1192 137.283 65.1403 137.256 65.1563C137.229 65.1722 137.199 65.1827 137.168 65.187C137.137 65.1914 137.106 65.1895 137.075 65.1816C136.773 65.128 136.463 65.1454 136.168 65.2325C135.874 65.3195 135.604 65.4738 135.379 65.6832C135.334 65.7233 135.275 65.7446 135.214 65.7426Z" fill="#1A2E35"/>
<path d="M143.438 66.66C143.389 66.6606 143.342 66.6463 143.302 66.6192C143.262 66.5921 143.231 66.5533 143.213 66.5082C143.099 66.2255 142.921 65.973 142.693 65.7704C142.466 65.5677 142.194 65.4204 141.9 65.34C141.868 65.3344 141.838 65.3226 141.811 65.3053C141.784 65.2881 141.76 65.2656 141.742 65.2392C141.724 65.2128 141.711 65.1831 141.704 65.1517C141.697 65.1203 141.696 65.0878 141.702 65.0562C141.715 64.993 141.751 64.9373 141.804 64.9004C141.857 64.8635 141.922 64.8484 141.986 64.8582C142.362 64.9522 142.711 65.1348 143.002 65.3909C143.294 65.6469 143.52 65.9689 143.662 66.33C143.675 66.3594 143.683 66.3912 143.683 66.4234C143.684 66.4557 143.679 66.4877 143.667 66.5178C143.655 66.5479 143.638 66.5753 143.615 66.5986C143.593 66.6219 143.566 66.6405 143.537 66.6534L143.438 66.66Z" fill="#1A2E35"/>
<path d="M136.818 71.115C136.614 71.1157 136.412 71.0691 136.229 70.9786C136.045 70.8881 135.886 70.7563 135.762 70.5936C135.452 70.1095 135.244 69.5665 135.154 68.9987C135.063 68.4308 135.09 67.8504 135.234 67.2936C135.61 65.208 136.917 63.5118 138.151 63.5118C138.356 63.5147 138.559 63.5637 138.742 63.655C138.926 63.7464 139.087 63.8779 139.214 64.0398C139.524 64.5239 139.731 65.0668 139.822 65.6347C139.913 66.2025 139.886 66.783 139.742 67.3398C139.366 69.4254 138.052 71.115 136.818 71.115ZM138.138 63.6966C136.983 63.6966 135.742 65.3334 135.379 67.3398C135.148 68.6598 135.333 69.8478 135.874 70.488C135.984 70.6308 136.125 70.7467 136.286 70.8268C136.447 70.9068 136.625 70.949 136.805 70.95C137.966 70.95 139.201 69.3198 139.564 67.3134C139.704 66.783 139.732 66.2292 139.647 65.6873C139.562 65.1453 139.365 64.627 139.069 64.1652C138.962 64.0221 138.823 63.9055 138.664 63.8243C138.505 63.7431 138.33 63.6994 138.151 63.6966H138.138Z" fill="#F9F9F9"/>
<path d="M141.946 71.775C141.732 71.772 141.522 71.7205 141.331 71.6245C141.14 71.5284 140.974 71.3903 140.844 71.2206C140.548 70.7762 140.347 70.275 140.255 69.7489C140.163 69.2228 140.182 68.6833 140.309 68.1648C140.646 66.2244 141.913 64.6536 143.134 64.6536C143.348 64.6592 143.558 64.7125 143.749 64.8096C143.939 64.9066 144.106 65.045 144.236 65.2146C144.53 65.6589 144.729 66.159 144.821 66.6836C144.913 67.2081 144.896 67.746 144.771 68.2638C144.441 70.2108 143.174 71.775 141.946 71.775ZM143.114 64.8186C141.966 64.8186 140.778 66.33 140.474 68.1978C140.356 68.6926 140.339 69.2064 140.426 69.7079C140.512 70.2093 140.699 70.6881 140.976 71.115C141.094 71.2626 141.242 71.3831 141.411 71.4685C141.579 71.5539 141.764 71.6022 141.953 71.61C143.101 71.61 144.296 70.1052 144.593 68.2374C144.71 67.7428 144.727 67.2296 144.642 66.7284C144.557 66.2273 144.372 65.7483 144.098 65.3202C143.981 65.1714 143.833 65.0495 143.664 64.963C143.495 64.8764 143.31 64.8272 143.121 64.8186H143.114Z" fill="#F9F9F9"/>
<path d="M81.9522 219.589C81.2922 219.589 80.6322 218.572 80.2428 217.985C80.2297 217.965 80.2228 217.942 80.2228 217.919C80.2228 217.895 80.2297 217.872 80.2428 217.853C80.2569 217.833 80.2761 217.818 80.2982 217.809C80.3203 217.8 80.3445 217.797 80.3682 217.8C80.5794 217.846 82.3944 218.242 82.6254 218.863C82.6517 218.931 82.6588 219.005 82.646 219.077C82.6332 219.149 82.601 219.217 82.5528 219.272C82.4908 219.374 82.4022 219.458 82.2964 219.513C82.1906 219.569 82.0716 219.595 81.9522 219.589ZM80.5728 218.104C81.081 218.869 81.576 219.325 81.9324 219.344C82.0115 219.345 82.0895 219.325 82.1588 219.287C82.2282 219.249 82.2866 219.194 82.3284 219.127C82.3507 219.103 82.3657 219.074 82.3716 219.042C82.3774 219.011 82.3739 218.978 82.3614 218.948C82.2426 218.618 81.2988 218.288 80.5728 218.104Z" fill="#8982FF"/>
<path d="M80.8698 218.104C80.6699 218.104 80.4706 218.082 80.2758 218.038C80.2559 218.031 80.2379 218.019 80.223 218.005C80.2081 217.99 80.1968 217.972 80.19 217.952C80.1769 217.913 80.1769 217.871 80.19 217.833C80.2362 217.793 81.246 216.797 81.9918 216.797H82.0446C82.1369 216.803 82.227 216.828 82.3089 216.872C82.3907 216.915 82.4626 216.975 82.5198 217.048C82.5871 217.118 82.6288 217.209 82.6384 217.306C82.648 217.403 82.6248 217.5 82.5726 217.582C82.3614 217.939 81.5166 218.104 80.8698 218.104ZM80.5728 217.846C81.1932 217.919 82.1964 217.741 82.401 217.444C82.434 217.397 82.4604 217.325 82.3614 217.199C82.3269 217.151 82.2814 217.111 82.2286 217.084C82.1759 217.056 82.1173 217.041 82.0578 217.041C81.4906 217.147 80.9711 217.429 80.5728 217.846Z" fill="#8982FF"/>
<path d="M118.444 232.518C117.897 232.505 117.353 232.439 116.82 232.32C116.795 232.315 116.771 232.302 116.754 232.283C116.736 232.264 116.725 232.24 116.721 232.214C116.718 232.189 116.723 232.164 116.735 232.141C116.746 232.119 116.765 232.101 116.787 232.089C117.031 231.97 119.15 230.914 119.764 231.271C119.819 231.306 119.865 231.355 119.897 231.413C119.929 231.47 119.947 231.535 119.948 231.601C119.955 231.712 119.936 231.823 119.891 231.925C119.846 232.028 119.778 232.118 119.691 232.188C119.324 232.434 118.885 232.55 118.444 232.518ZM117.236 232.162C118.364 232.346 119.216 232.3 119.546 232.016C119.602 231.968 119.647 231.907 119.676 231.838C119.704 231.769 119.716 231.695 119.711 231.62C119.712 231.595 119.707 231.571 119.695 231.549C119.683 231.527 119.666 231.508 119.645 231.495C119.315 231.304 118.14 231.752 117.236 232.155V232.162Z" fill="#8982FF"/>
<path d="M116.853 232.32H116.78C116.761 232.307 116.746 232.29 116.736 232.268C116.727 232.247 116.724 232.224 116.728 232.201C116.728 232.109 117.044 230.01 118.193 230.01H118.292C118.622 230.043 118.714 230.208 118.734 230.347C118.826 230.927 117.546 232.049 116.899 232.327L116.853 232.32ZM118.173 230.234C117.427 230.234 117.097 231.449 116.985 231.977C117.645 231.587 118.523 230.71 118.47 230.36C118.47 230.36 118.47 230.254 118.239 230.234H118.173Z" fill="#8982FF"/>
<path d="M136.772 66.8514L137.808 66.759C137.808 66.759 137.155 67.4322 136.772 66.8514Z" fill="#1A2E35"/>
<path d="M132.238 90.7764C123.658 87.5226 120.978 82.6518 121.183 81.6288L122.503 81.708H122.76C123.089 81.7166 123.418 81.7453 123.743 81.7938C124.351 81.8466 124.978 81.9126 125.611 81.9984L126.271 82.0908C129.421 82.4739 132.54 83.0805 135.604 83.9058C137.003 84.315 137.465 84.447 138.244 84.7242L138.904 84.975L139.181 85.0806C139.867 86.559 139.715 89.5818 132.238 90.7764Z" fill="#FD897B"/>
<path d="M132.238 90.7764C123.658 87.5226 120.978 82.6518 121.183 81.6288L122.503 81.708H122.76C124.502 84.183 128.317 87.6018 132.205 88.0704C135.333 87.4104 138.283 86.658 138.257 84.7242L138.917 84.975L139.194 85.0806C139.867 86.559 139.715 89.5818 132.238 90.7764Z" fill="#8982FF"/>
<path opacity="0.3" d="M132.238 90.7764C123.658 87.5226 120.978 82.6518 121.183 81.6288L122.503 81.708H122.76C124.502 84.183 128.317 87.6018 132.205 88.0704C135.333 87.4104 138.283 86.658 138.257 84.7242L138.917 84.975L139.194 85.0806C139.867 86.559 139.715 89.5818 132.238 90.7764Z" fill="black"/>
<path d="M114.899 111.679L113.579 113.342C113.48 113.467 113.626 113.645 113.863 113.692L135.419 117.889C135.604 117.929 135.775 117.889 135.808 117.751L136.349 115.949C136.389 115.823 136.25 115.685 136.046 115.645L115.229 111.593C115.171 111.58 115.111 111.581 115.054 111.596C114.997 111.611 114.944 111.639 114.899 111.679Z" fill="#1A2E35"/>
<path d="M117.242 114.55L116.688 114.444C116.576 114.444 116.503 114.352 116.523 114.279L117.249 111.943C117.249 111.87 117.381 111.837 117.487 111.857L118.048 111.962C118.16 111.962 118.232 112.061 118.213 112.127L117.487 114.47C117.461 114.509 117.423 114.539 117.378 114.553C117.334 114.567 117.286 114.566 117.242 114.55Z" fill="#8982FF"/>
<path opacity="0.3" d="M117.242 114.55L116.688 114.444C116.576 114.444 116.503 114.352 116.523 114.279L117.249 111.943C117.249 111.87 117.381 111.837 117.487 111.857L118.048 111.962C118.16 111.962 118.232 112.061 118.213 112.127L117.487 114.47C117.461 114.509 117.423 114.539 117.378 114.553C117.334 114.567 117.286 114.566 117.242 114.55Z" fill="black"/>
<path d="M118.708 89.5026C118.457 91.0668 118.219 92.8026 118.048 94.4262C117.876 96.0498 117.724 97.7262 117.645 99.4158C117.601 100.247 117.575 101.079 117.566 101.911V104.386C117.599 106.002 117.724 107.615 117.942 109.217C118.068 109.765 118.291 110.286 118.602 110.755C118.999 111.396 119.44 112.009 119.922 112.589C120.976 113.842 122.105 115.029 123.301 116.147C124.509 117.308 125.776 118.43 127.076 119.526C128.377 120.622 129.716 121.711 131.036 122.76L129.617 124.951C126.511 123.249 123.541 121.31 120.734 119.15C119.283 118.041 117.916 116.828 116.642 115.52C115.961 114.82 115.336 114.068 114.774 113.269C114.076 112.327 113.579 111.251 113.315 110.108L113.071 108.709C112.985 108.253 112.926 107.798 112.873 107.349C112.741 106.438 112.669 105.534 112.596 104.63C112.459 102.831 112.417 101.027 112.471 99.2244C112.523 97.4358 112.622 95.6538 112.801 93.8784C112.979 92.103 113.203 90.3606 113.56 88.5258L118.708 89.5026Z" fill="#FD897B"/>
<path d="M114.325 82.9158C111.5 85.1994 112.174 91.9842 112.174 91.9842L121.678 95.1126C121.678 95.1126 121.242 87.2916 120.78 84.48C120.212 81.1338 117.097 80.6652 114.325 82.9158Z" fill="#1A2E35"/>
<path d="M129.875 122.338L134.171 120.74L133.511 124.826C133.511 124.826 130.396 125.948 128.799 124.509L129.875 122.338Z" fill="#FD897B"/>
<path d="M139.286 121.348V124.502L133.511 124.826L134.171 120.74L139.286 121.348Z" fill="#FD897B"/>
<path d="M133.841 117.784L133.287 117.678C133.175 117.678 133.102 117.586 133.122 117.513L133.848 115.177C133.848 115.104 133.98 115.071 134.092 115.091L134.647 115.196C134.759 115.196 134.831 115.295 134.812 115.361L134.086 117.704C134.066 117.77 133.98 117.81 133.841 117.784Z" fill="#8982FF"/>
<path opacity="0.3" d="M133.841 117.784L133.287 117.678C133.175 117.678 133.102 117.586 133.122 117.513L133.848 115.177C133.848 115.104 133.98 115.071 134.092 115.091L134.647 115.196C134.759 115.196 134.831 115.295 134.812 115.361L134.086 117.704C134.066 117.77 133.98 117.81 133.841 117.784Z" fill="black"/>
<path d="M125.545 116.16L124.984 116.054C124.872 116.054 124.799 115.962 124.826 115.889L125.552 113.553C125.552 113.48 125.677 113.447 125.789 113.467L126.35 113.573C126.456 113.573 126.535 113.672 126.509 113.738L125.783 116.081C125.763 116.16 125.657 116.193 125.545 116.16Z" fill="#8982FF"/>
<path opacity="0.3" d="M125.545 116.16L124.984 116.054C124.872 116.054 124.799 115.962 124.826 115.889L125.552 113.553C125.552 113.48 125.677 113.447 125.789 113.467L126.35 113.573C126.456 113.573 126.535 113.672 126.509 113.738L125.783 116.081C125.763 116.16 125.657 116.193 125.545 116.16Z" fill="black"/>
<path d="M83.5099 154.645L117.724 229.37C118.509 231.068 119.933 232.387 121.686 233.039C123.44 233.69 125.38 233.622 127.083 232.848L132.515 230.366L258.291 172.781C259.99 172 261.31 170.577 261.963 168.824C262.616 167.072 262.549 165.132 261.776 163.429L231.541 97.4291L227.581 88.7106C226.794 87.0147 225.37 85.698 223.617 85.0467C221.865 84.3954 219.926 84.4621 218.222 85.2323L87.0079 145.292C85.309 146.074 83.988 147.496 83.3328 149.248C82.6775 151 82.7412 152.94 83.5099 154.645Z" fill="#8982FF"/>
<path opacity="0.1" d="M83.5099 154.645L117.724 229.37C118.509 231.068 119.933 232.387 121.686 233.039C123.44 233.69 125.38 233.622 127.083 232.848L132.515 230.366L258.291 172.781C259.99 172 261.31 170.577 261.963 168.824C262.616 167.072 262.549 165.132 261.776 163.429L231.541 97.4291L227.581 88.7106C226.794 87.0147 225.37 85.698 223.617 85.0467C221.865 84.3954 219.926 84.4621 218.222 85.2323L87.0079 145.292C85.309 146.074 83.988 147.496 83.3328 149.248C82.6775 151 82.7412 152.94 83.5099 154.645Z" fill="white"/>
<path d="M241.445 119.02L97.3984 184.97L114.257 221.792L258.304 155.842L241.445 119.02Z" fill="#8982FF"/>
<path opacity="0.3" d="M241.445 119.02L97.3984 184.97L114.257 221.792L258.304 155.842L241.445 119.02Z" fill="white"/>
<path d="M235.481 136.054L144.452 177.731L150.486 190.909L241.514 149.233L235.481 136.054Z" fill="#8982FF"/>
<path opacity="0.8" d="M235.481 136.054L144.452 177.731L150.486 190.909L241.514 149.233L235.481 136.054Z" fill="white"/>
<path d="M236.515 105.601L92.3522 172.152L101.428 191.813L245.591 125.261L236.515 105.601Z" fill="#8982FF"/>
<path opacity="0.3" d="M236.515 105.601L92.3522 172.152L101.428 191.813L245.591 125.261L236.515 105.601Z" fill="black"/>
<path d="M103.072 155.582L132.515 230.34L258.291 172.755C259.99 171.973 261.31 170.551 261.963 168.798C262.616 167.045 262.549 165.106 261.776 163.403L231.541 97.4028L107.059 146.428C105.321 147.119 103.927 148.469 103.18 150.184C102.433 151.898 102.395 153.839 103.072 155.582Z" fill="#8982FF"/>
<path d="M269.549 131.951L268.926 132.17L269.957 135.102L270.58 134.884L269.549 131.951Z" fill="#8982FF"/>
<path opacity="0.1" d="M269.549 131.951L268.926 132.17L269.957 135.102L270.58 134.884L269.549 131.951Z" fill="white"/>
<path d="M264.352 117.21L263.729 117.429L267.788 128.986L268.41 128.768L264.352 117.21Z" fill="#8982FF"/>
<path opacity="0.1" d="M264.352 117.21L263.729 117.429L267.788 128.986L268.41 128.768L264.352 117.21Z" fill="white"/>
<path d="M111.83 146.685L247.988 98.868C249.755 98.2532 251.693 98.3629 253.379 99.173C255.064 99.9831 256.361 101.428 256.984 103.191L284.216 180.734C284.831 182.501 284.723 184.439 283.914 186.126C283.105 187.812 281.662 189.11 279.899 189.737L143.741 237.554C141.974 238.165 140.037 238.054 138.351 237.244C136.665 236.435 135.367 234.992 134.739 233.231L107.507 155.687C106.893 153.92 107.002 151.981 107.812 150.294C108.622 148.608 110.067 147.31 111.83 146.685Z" fill="#8982FF"/>
<path opacity="0.1" d="M111.83 146.685L247.988 98.868C249.755 98.2532 251.693 98.3629 253.379 99.173C255.064 99.9831 256.361 101.428 256.984 103.191L284.216 180.734C284.831 182.501 284.723 184.439 283.914 186.126C283.105 187.812 281.662 189.11 279.899 189.737L143.741 237.554C141.974 238.165 140.037 238.054 138.351 237.244C136.665 236.435 135.367 234.992 134.739 233.231L107.507 155.687C106.893 153.92 107.002 151.981 107.812 150.294C108.622 148.608 110.067 147.31 111.83 146.685Z" fill="white"/>
<path d="M267.409 132.866L117.932 185.358L129.778 219.091L279.255 166.598L267.409 132.866Z" fill="#8982FF"/>
<path opacity="0.3" d="M267.409 132.866L117.932 185.358L129.778 219.091L279.255 166.598L267.409 132.866Z" fill="white"/>
<path d="M249.516 116.449L218.617 127.3L220.307 132.114L251.207 121.262L249.516 116.449Z" fill="#8982FF"/>
<path opacity="0.8" d="M249.516 116.449L218.617 127.3L220.307 132.114L251.207 121.262L249.516 116.449Z" fill="white"/>
<path d="M270.218 175.397L245.428 184.103L246.311 186.618L271.102 177.913L270.218 175.397Z" fill="#8982FF"/>
<path opacity="0.8" d="M270.218 175.397L245.428 184.103L246.311 186.618L271.102 177.913L270.218 175.397Z" fill="white"/>
<path d="M271.905 180.21L239.959 191.429L240.843 193.944L272.788 182.726L271.905 180.21Z" fill="#8982FF"/>
<path opacity="0.8" d="M271.905 180.21L239.959 191.429L240.843 193.944L272.788 182.726L271.905 180.21Z" fill="white"/>
<path d="M157.998 216.96L142.025 222.569L143.926 227.98L159.898 222.371L157.998 216.96Z" fill="#8982FF"/>
<path opacity="0.8" d="M157.998 216.96L142.025 222.569L143.926 227.98L159.898 222.371L157.998 216.96Z" fill="white"/>
<path d="M243.401 170.61L262.053 164.063C263.036 163.713 263.842 162.989 264.294 162.048C264.746 161.108 264.809 160.027 264.469 159.04C264.119 158.057 263.395 157.252 262.454 156.799C261.514 156.347 260.433 156.284 259.446 156.625L240.788 163.178C239.805 163.528 238.999 164.252 238.547 165.193C238.095 166.133 238.032 167.214 238.372 168.201C238.723 169.185 239.449 169.99 240.391 170.441C241.333 170.892 242.415 170.953 243.401 170.61Z" fill="#8982FF"/>
<path d="M211.451 181.83L230.109 175.276C231.085 174.925 231.884 174.205 232.334 173.27C232.785 172.336 232.851 171.262 232.518 170.28C232.167 169.298 231.442 168.494 230.502 168.043C229.561 167.592 228.481 167.53 227.495 167.871L208.844 174.425C207.861 174.775 207.055 175.499 206.603 176.439C206.15 177.38 206.088 178.461 206.428 179.447C206.785 180.425 207.511 181.222 208.451 181.668C209.391 182.114 210.468 182.172 211.451 181.83Z" fill="#8982FF"/>
<path d="M179.52 193.05L198.178 186.496C199.152 186.142 199.948 185.421 200.395 184.487C200.843 183.553 200.907 182.481 200.574 181.5C200.223 180.518 199.498 179.714 198.558 179.263C197.617 178.812 196.537 178.75 195.551 179.091L176.88 185.618C175.898 185.97 175.094 186.694 174.643 187.634C174.192 188.575 174.13 189.655 174.471 190.641C174.822 191.629 175.551 192.438 176.497 192.89C177.444 193.341 178.531 193.399 179.52 193.05Z" fill="#8982FF"/>
<path d="M147.556 204.27L166.214 197.716C167.191 197.366 167.992 196.646 168.444 195.712C168.896 194.778 168.962 193.703 168.63 192.72C168.279 191.738 167.554 190.934 166.614 190.483C165.673 190.032 164.593 189.97 163.607 190.311L144.949 196.865C143.966 197.215 143.161 197.939 142.708 198.879C142.256 199.82 142.193 200.901 142.534 201.887C142.89 202.865 143.617 203.662 144.557 204.108C145.496 204.554 146.574 204.612 147.556 204.27Z" fill="#8982FF"/>
<g opacity="0.8">
<path d="M243.401 170.61L262.053 164.063C263.036 163.713 263.842 162.989 264.294 162.048C264.746 161.108 264.809 160.027 264.469 159.04C264.119 158.057 263.395 157.252 262.454 156.799C261.514 156.347 260.433 156.284 259.446 156.625L240.788 163.178C239.804 163.528 238.999 164.252 238.547 165.193C238.094 166.133 238.032 167.214 238.372 168.201C238.723 169.185 239.449 169.99 240.391 170.441C241.333 170.892 242.415 170.953 243.401 170.61Z" fill="white"/>
<path d="M211.451 181.83L230.109 175.276C231.085 174.925 231.884 174.205 232.334 173.27C232.785 172.336 232.851 171.262 232.518 170.28C232.167 169.298 231.442 168.494 230.502 168.043C229.561 167.592 228.481 167.53 227.495 167.871L208.844 174.425C207.86 174.775 207.055 175.499 206.603 176.439C206.15 177.38 206.088 178.461 206.428 179.447C206.785 180.425 207.511 181.222 208.451 181.668C209.391 182.114 210.468 182.172 211.451 181.83Z" fill="white"/>
<path d="M179.52 193.05L198.178 186.496C199.152 186.142 199.948 185.421 200.395 184.487C200.843 183.553 200.907 182.481 200.574 181.5C200.223 180.518 199.498 179.714 198.558 179.263C197.617 178.812 196.537 178.75 195.551 179.091L176.88 185.618C175.898 185.97 175.094 186.694 174.643 187.634C174.192 188.575 174.13 189.655 174.471 190.641C174.822 191.629 175.551 192.438 176.497 192.89C177.444 193.341 178.531 193.399 179.52 193.05Z" fill="white"/>
<path d="M147.556 204.27L166.214 197.716C167.191 197.366 167.992 196.646 168.444 195.712C168.895 194.778 168.962 193.703 168.63 192.72C168.279 191.738 167.554 190.934 166.614 190.483C165.673 190.032 164.593 189.97 163.607 190.311L144.949 196.865C143.966 197.215 143.161 197.939 142.708 198.879C142.256 199.82 142.193 200.901 142.534 201.887C142.89 202.865 143.617 203.662 144.556 204.108C145.496 204.554 146.574 204.612 147.556 204.27Z" fill="white"/>
</g>
<path d="M253.096 134.813L236.495 140.643C235.084 141.138 234.343 142.683 234.838 144.093L238.298 153.944C238.793 155.354 240.337 156.096 241.747 155.601L258.349 149.77C259.759 149.275 260.501 147.731 260.006 146.321L256.546 136.469C256.051 135.059 254.506 134.318 253.096 134.813Z" fill="#8982FF"/>
<path opacity="0.3" d="M253.096 134.813L236.495 140.643C235.084 141.138 234.343 142.683 234.838 144.093L238.298 153.944C238.793 155.354 240.337 156.096 241.747 155.601L258.349 149.77C259.759 149.275 260.501 147.731 260.006 146.321L256.546 136.469C256.051 135.059 254.506 134.318 253.096 134.813Z" fill="black"/>
<path d="M152.909 153.12C152.495 151.937 151.852 150.847 151.016 149.913C150.18 148.978 149.169 148.218 148.039 147.675C146.909 147.131 145.684 146.816 144.432 146.747C143.181 146.678 141.928 146.857 140.745 147.272L127.334 152.308L127.162 152.354L126.766 152.519L126.522 152.612C124.357 153.59 122.651 155.364 121.76 157.567C120.868 159.769 120.86 162.23 121.735 164.439C122.611 166.648 124.304 168.434 126.463 169.427C128.621 170.42 131.079 170.544 133.327 169.772L146.025 165.548C146.391 165.466 146.752 165.365 147.107 165.244C147.37 165.152 147.628 165.046 147.88 164.927C150.038 163.939 151.749 162.181 152.68 159.997C153.61 157.813 153.691 155.361 152.909 153.12Z" fill="#8982FF"/>
<path opacity="0.8" d="M152.909 153.12C152.495 151.937 151.852 150.847 151.016 149.913C150.18 148.978 149.169 148.218 148.039 147.675C146.909 147.131 145.684 146.816 144.432 146.747C143.181 146.678 141.928 146.857 140.745 147.272L127.334 152.308L127.162 152.354L126.766 152.519L126.522 152.612C124.357 153.59 122.651 155.364 121.76 157.567C120.868 159.769 120.86 162.23 121.735 164.439C122.611 166.648 124.304 168.434 126.463 169.427C128.621 170.42 131.079 170.544 133.327 169.772L146.025 165.548C146.391 165.466 146.752 165.365 147.107 165.244C147.37 165.152 147.628 165.046 147.88 164.927C150.038 163.939 151.749 162.181 152.68 159.997C153.61 157.813 153.691 155.361 152.909 153.12Z" fill="white"/>
</svg>
