<svg width="203" height="160" viewBox="0 0 203 160" fill="none" xmlns="http://www.w3.org/2000/svg">
<path d="M101.748 4.47952C101.739 5.00206 101.627 5.51764 101.419 5.99681C101.21 6.47599 100.91 6.90938 100.534 7.27221C100.158 7.63505 99.715 7.92023 99.2293 8.11146C98.7435 8.30269 98.2248 8.39623 97.7029 8.38673H78.9353C78.8673 8.38499 78.7993 8.38323 78.7313 8.378C78.5555 8.36664 78.3806 8.34271 78.2082 8.30641V1.65475C78.2081 1.3886 78.2892 1.12877 78.4406 0.910051C78.5921 0.691329 78.8067 0.524156 79.0556 0.430908H97.8459C98.8993 0.450848 99.9017 0.888304 100.633 1.6473C101.365 2.4063 101.766 3.42486 101.748 4.47952H101.748Z" fill="#E6E6E6"/>
<path d="M200.833 9.1377e-06H79.7973C79.5365 -0.000762193 79.2779 0.0473051 79.0347 0.141729C78.6223 0.296206 78.2668 0.573152 78.0159 0.935492C77.765 1.29783 77.6306 1.72827 77.6308 2.16917V134.344C77.631 134.919 77.8593 135.47 78.2656 135.877C78.6718 136.284 79.2228 136.513 79.7973 136.513H200.833C201.408 136.513 201.959 136.284 202.365 135.877C202.771 135.47 203 134.919 203 134.344V2.16917C203 1.59394 202.771 1.04232 202.365 0.635573C201.959 0.228821 201.408 0.000217643 200.833 9.1377e-06ZM202.133 134.344C202.133 134.689 201.996 135.019 201.752 135.263C201.508 135.507 201.178 135.645 200.833 135.645H79.7973C79.4527 135.645 79.1224 135.507 78.8787 135.263C78.635 135.019 78.4979 134.689 78.4974 134.344V2.16917C78.4979 1.82415 78.635 1.49342 78.8787 1.24945C79.1224 1.00548 79.4527 0.868193 79.7973 0.867675H200.833C201.178 0.868193 201.508 1.00548 201.752 1.24945C201.996 1.49342 202.133 1.82415 202.133 2.16917V134.344Z" fill="#E6E6E6"/>
<path d="M136.594 45.4139C138.164 45.4139 139.437 44.1393 139.437 42.567C139.437 40.9948 138.164 39.7202 136.594 39.7202C135.024 39.7202 133.751 40.9948 133.751 42.567C133.751 44.1393 135.024 45.4139 136.594 45.4139Z" fill="#6C63FF"/>
<path d="M148.441 45.4139C150.012 45.4139 151.285 44.1393 151.285 42.567C151.285 40.9948 150.012 39.7202 148.441 39.7202C146.871 39.7202 145.598 40.9948 145.598 42.567C145.598 44.1393 146.871 45.4139 148.441 45.4139Z" fill="#6C63FF"/>
<path d="M112.899 68.939C114.47 68.939 115.743 67.6644 115.743 66.0922C115.743 64.5199 114.47 63.2454 112.899 63.2454C111.329 63.2454 110.056 64.5199 110.056 66.0922C110.056 67.6644 111.329 68.939 112.899 68.939Z" fill="#6C63FF"/>
<path d="M124.747 68.939C126.317 68.939 127.59 67.6644 127.59 66.0922C127.59 64.5199 126.317 63.2454 124.747 63.2454C123.176 63.2454 121.903 64.5199 121.903 66.0922C121.903 67.6644 123.176 68.939 124.747 68.939Z" fill="#6C63FF"/>
<path d="M136.594 80.7017C138.164 80.7017 139.437 79.4271 139.437 77.8549C139.437 76.2826 138.164 75.0081 136.594 75.0081C135.024 75.0081 133.751 76.2826 133.751 77.8549C133.751 79.4271 135.024 80.7017 136.594 80.7017Z" fill="#6C63FF"/>
<path d="M148.441 80.7017C150.012 80.7017 151.285 79.4271 151.285 77.8549C151.285 76.2826 150.012 75.0081 148.441 75.0081C146.871 75.0081 145.598 76.2826 145.598 77.8549C145.598 79.4271 146.871 80.7017 148.441 80.7017Z" fill="#6C63FF"/>
<path d="M160.289 80.7017C161.859 80.7017 163.132 79.4271 163.132 77.8549C163.132 76.2826 161.859 75.0081 160.289 75.0081C158.718 75.0081 157.445 76.2826 157.445 77.8549C157.445 79.4271 158.718 80.7017 160.289 80.7017Z" fill="#6C63FF"/>
<path d="M89.0413 2.10326C88.9779 2.16672 88.9423 2.25278 88.9423 2.34253C88.9423 2.43227 88.9779 2.51835 89.0413 2.58181L89.0413 2.58184L90.4923 4.03456H86.9144C86.8249 4.03483 86.7392 4.0706 86.676 4.13403C86.6129 4.19747 86.5774 4.28339 86.5774 4.37297C86.5774 4.46255 86.6129 4.54847 86.676 4.61191C86.7392 4.67534 86.8249 4.71112 86.9144 4.71138H90.4923L89.0413 6.1641C88.9779 6.22756 88.9423 6.31364 88.9423 6.40339C88.9423 6.49314 88.9779 6.57921 89.0413 6.64268C89.1047 6.70614 89.1907 6.7418 89.2803 6.7418C89.37 6.7418 89.4559 6.70615 89.5193 6.64269L91.5473 4.61226C91.6106 4.5488 91.6463 4.46272 91.6463 4.37297C91.6463 4.28322 91.6106 4.19715 91.5473 4.13368L89.5193 2.10326C89.4559 2.0398 89.37 2.00415 89.2803 2.00415C89.1907 2.00415 89.1047 2.0398 89.0413 2.10326H89.0413Z" fill="white"/>
<path d="M174.733 48.6409H98.3866C98.0912 48.6409 97.8517 48.5114 97.8517 48.3517C97.8517 48.192 98.0912 48.0625 98.3866 48.0625H174.733C175.029 48.0625 175.268 48.192 175.268 48.3517C175.268 48.5114 175.029 48.6409 174.733 48.6409Z" fill="#E6E6E6"/>
<path d="M174.733 35.8636H98.3866C98.0912 35.8636 97.8517 35.7341 97.8517 35.5744C97.8517 35.4147 98.0912 35.2852 98.3866 35.2852H174.733C175.029 35.2852 175.268 35.4147 175.268 35.5744C175.268 35.7341 175.029 35.8636 174.733 35.8636Z" fill="#E6E6E6"/>
<path d="M174.979 60.575H98.2089C98.1322 60.575 98.0588 60.5446 98.0046 60.4903C97.9504 60.4361 97.92 60.3625 97.92 60.2858C97.92 60.2091 97.9504 60.1355 98.0046 60.0813C98.0588 60.0271 98.1322 59.9966 98.2089 59.9966H174.979C175.056 59.9966 175.129 60.0271 175.183 60.0813C175.238 60.1355 175.268 60.2091 175.268 60.2858C175.268 60.3625 175.238 60.4361 175.183 60.4903C175.129 60.5446 175.056 60.575 174.979 60.575Z" fill="#E6E6E6"/>
<path d="M174.979 72.1439H98.2089C98.1322 72.1439 98.0588 72.1134 98.0046 72.0592C97.9504 72.0049 97.92 71.9314 97.92 71.8547C97.92 71.7779 97.9504 71.7044 98.0046 71.6501C98.0588 71.5959 98.1322 71.5654 98.2089 71.5654H174.979C175.056 71.5654 175.129 71.5959 175.183 71.6501C175.238 71.7044 175.268 71.7779 175.268 71.8547C175.268 71.9314 175.238 72.0049 175.183 72.0592C175.129 72.1134 175.056 72.1439 174.979 72.1439Z" fill="#E6E6E6"/>
<path d="M174.979 84.0018H98.2089C98.1322 84.0018 98.0588 83.9713 98.0046 83.9171C97.9504 83.8628 97.92 83.7893 97.92 83.7126C97.92 83.6359 97.9504 83.5623 98.0046 83.5081C98.0588 83.4538 98.1322 83.4233 98.2089 83.4233H174.979C175.056 83.4233 175.129 83.4538 175.183 83.5081C175.238 83.5623 175.268 83.6359 175.268 83.7126C175.268 83.7893 175.238 83.8628 175.183 83.9171C175.129 83.9713 175.056 84.0018 174.979 84.0018Z" fill="#E6E6E6"/>
<path d="M166.024 83.406V35.7538C166.024 35.6548 166.154 35.5745 166.314 35.5745C166.473 35.5745 166.603 35.6547 166.603 35.7538V83.406C166.603 83.5051 166.473 83.5854 166.314 83.5854C166.154 83.5854 166.024 83.5051 166.024 83.406Z" fill="#E6E6E6"/>
<path d="M154.181 83.406V35.7538C154.181 35.6548 154.31 35.5745 154.47 35.5745C154.63 35.5745 154.759 35.6547 154.759 35.7538V83.406C154.759 83.5051 154.63 83.5854 154.47 83.5854C154.31 83.5854 154.181 83.5051 154.181 83.406Z" fill="#E6E6E6"/>
<path d="M142.337 83.406V35.7538C142.337 35.6548 142.467 35.5745 142.627 35.5745C142.786 35.5745 142.916 35.6547 142.916 35.7538V83.406C142.916 83.5051 142.786 83.5854 142.627 83.5854C142.467 83.5854 142.337 83.5051 142.337 83.406Z" fill="#E6E6E6"/>
<path d="M130.783 83.406V35.7538C130.783 35.6548 130.912 35.5745 131.072 35.5745C131.232 35.5745 131.361 35.6547 131.361 35.7538V83.406C131.361 83.5051 131.232 83.5854 131.072 83.5854C130.912 83.5854 130.783 83.5051 130.783 83.406Z" fill="#E6E6E6"/>
<path d="M118.651 95.508V35.7991C118.667 35.7349 118.704 35.6779 118.757 35.6372C118.809 35.5966 118.873 35.5745 118.94 35.5745C119.006 35.5745 119.07 35.5966 119.123 35.6372C119.175 35.6779 119.213 35.7349 119.229 35.7991V95.508C119.213 95.5722 119.175 95.6292 119.123 95.6699C119.07 95.7105 119.006 95.7326 118.94 95.7326C118.873 95.7326 118.809 95.7105 118.757 95.6699C118.704 95.6292 118.667 95.5722 118.651 95.508Z" fill="#E6E6E6"/>
<path d="M106.517 95.508V35.7991C106.534 35.7349 106.571 35.6779 106.623 35.6372C106.676 35.5966 106.74 35.5745 106.807 35.5745C106.873 35.5745 106.937 35.5966 106.99 35.6372C107.042 35.6779 107.079 35.7349 107.096 35.7991V95.508C107.079 95.5722 107.042 95.6292 106.99 95.6699C106.937 95.7105 106.873 95.7326 106.807 95.7326C106.74 95.7326 106.676 95.7105 106.623 95.6699C106.571 95.6292 106.534 95.5722 106.517 95.508Z" fill="#E6E6E6"/>
<path d="M98.209 95.8602C98.1324 95.8603 98.0589 95.83 98.0046 95.7759C97.9503 95.7218 97.9197 95.6483 97.9195 95.5716C97.9193 95.4949 97.9496 95.4212 98.0037 95.3669C98.0577 95.3125 98.1311 95.2819 98.2077 95.2817L127.604 95.1541C127.68 95.1556 127.752 95.1864 127.806 95.24C127.86 95.2937 127.892 95.366 127.894 95.4421C127.894 95.4801 127.887 95.5178 127.872 95.5529C127.858 95.588 127.837 95.62 127.81 95.647C127.784 95.6739 127.752 95.6954 127.717 95.71C127.682 95.7247 127.644 95.7323 127.606 95.7325L98.2103 95.8602H98.209Z" fill="#E6E6E6"/>
<path d="M119.701 23.1893C119.624 23.1894 119.551 23.159 119.497 23.1048C119.442 23.0506 119.412 22.977 119.412 22.9003C119.412 22.8236 119.442 22.75 119.496 22.6957C119.55 22.6415 119.624 22.6109 119.7 22.6109L160.929 22.5593H160.93C161.007 22.5593 161.08 22.5897 161.134 22.6439C161.188 22.6981 161.219 22.7716 161.219 22.8483C161.219 22.925 161.189 22.9986 161.135 23.0529C161.08 23.1072 161.007 23.1377 160.93 23.1378L119.701 23.1893H119.701Z" fill="#E6E6E6"/>
<path d="M133.661 117.483C132.517 117.483 131.398 117.143 130.446 116.506C129.494 115.87 128.752 114.965 128.314 113.906C127.876 112.847 127.761 111.682 127.985 110.558C128.208 109.434 128.759 108.401 129.569 107.591C130.378 106.78 131.409 106.228 132.532 106.005C133.655 105.781 134.818 105.896 135.876 106.335C136.934 106.773 137.837 107.516 138.473 108.469C139.109 109.422 139.449 110.542 139.449 111.688C139.449 112.449 139.299 113.203 139.008 113.906C138.717 114.609 138.291 115.248 137.754 115.786C137.216 116.324 136.578 116.751 135.876 117.042C135.174 117.333 134.421 117.483 133.661 117.483Z" fill="#E6E6E6"/>
<path d="M135.944 111.117H134.232V109.402C134.232 109.25 134.171 109.105 134.064 108.998C133.957 108.891 133.812 108.83 133.661 108.83C133.509 108.83 133.364 108.891 133.257 108.998C133.15 109.105 133.09 109.25 133.09 109.402V111.117H131.377C131.226 111.117 131.08 111.177 130.973 111.284C130.866 111.391 130.806 111.537 130.806 111.688C130.806 111.84 130.866 111.985 130.973 112.093C131.08 112.2 131.226 112.26 131.377 112.26H133.09V113.975C133.09 114.05 133.104 114.124 133.133 114.194C133.161 114.263 133.203 114.327 133.256 114.38C133.309 114.433 133.372 114.475 133.442 114.504C133.511 114.533 133.586 114.548 133.661 114.548C133.736 114.548 133.81 114.533 133.879 114.504C133.949 114.475 134.012 114.433 134.065 114.38C134.118 114.327 134.16 114.263 134.188 114.194C134.217 114.124 134.232 114.05 134.232 113.975V112.26H135.944C136.096 112.26 136.241 112.2 136.348 112.093C136.455 111.985 136.515 111.84 136.515 111.688C136.515 111.537 136.455 111.391 136.348 111.284C136.241 111.177 136.096 111.117 135.944 111.117Z" fill="white"/>
<path d="M146.949 117.483C145.805 117.483 144.686 117.143 143.734 116.506C142.782 115.87 142.04 114.965 141.602 113.906C141.164 112.847 141.05 111.682 141.273 110.558C141.496 109.434 142.047 108.401 142.857 107.591C143.666 106.78 144.697 106.228 145.82 106.005C146.943 105.781 148.107 105.896 149.164 106.335C150.222 106.773 151.126 107.516 151.761 108.469C152.397 109.422 152.737 110.542 152.737 111.688C152.737 112.449 152.587 113.203 152.296 113.906C152.005 114.609 151.579 115.248 151.042 115.786C150.504 116.324 149.866 116.751 149.164 117.042C148.462 117.333 147.709 117.483 146.949 117.483Z" fill="#E6E6E6"/>
<path d="M149.878 114.154L148.371 112.387C148.724 111.887 148.877 111.272 148.8 110.665C148.724 110.057 148.423 109.5 147.957 109.104C147.491 108.707 146.893 108.5 146.282 108.522C145.671 108.544 145.09 108.795 144.654 109.224C144.218 109.654 143.959 110.231 143.926 110.843C143.894 111.454 144.091 112.056 144.48 112.529C144.868 113.002 145.419 113.312 146.025 113.399C146.63 113.485 147.246 113.342 147.751 112.997L149.219 114.717C149.294 114.804 149.4 114.858 149.514 114.866C149.629 114.875 149.742 114.838 149.829 114.764C149.916 114.689 149.97 114.583 149.979 114.469C149.989 114.355 149.952 114.241 149.878 114.154ZM144.782 110.965C144.782 110.65 144.876 110.343 145.05 110.081C145.225 109.82 145.473 109.616 145.763 109.495C146.054 109.375 146.373 109.343 146.681 109.405C146.989 109.466 147.273 109.618 147.495 109.84C147.717 110.063 147.868 110.346 147.93 110.655C147.991 110.963 147.959 111.283 147.839 111.574C147.719 111.864 147.515 112.113 147.254 112.288C146.993 112.462 146.685 112.556 146.371 112.556C145.95 112.555 145.546 112.387 145.248 112.089C144.951 111.791 144.783 111.387 144.782 110.965Z" fill="white"/>
<path d="M119.701 118.054C119.624 118.054 119.551 118.024 119.497 117.97C119.442 117.915 119.412 117.842 119.412 117.765C119.412 117.688 119.442 117.615 119.496 117.561C119.55 117.506 119.624 117.476 119.7 117.476L160.929 117.424H160.93C161.007 117.424 161.08 117.454 161.134 117.509C161.188 117.563 161.219 117.636 161.219 117.713C161.219 117.79 161.189 117.863 161.135 117.918C161.08 117.972 161.007 118.002 160.93 118.003L119.701 118.054H119.701Z" fill="#E6E6E6"/>
<path d="M66.9398 155.894L70.6249 155.894L72.378 141.663L66.9392 141.663L66.9398 155.894Z" fill="#FFB6B6"/>
<path d="M66.0014 154.689V159.47H77.8826V159.32C77.8824 158.092 77.3951 156.914 76.5278 156.046C75.6605 155.177 74.4843 154.689 73.2578 154.689L71.0855 153.041L70.9728 153.087L67.0384 154.689H66.0014Z" fill="#2F2E41"/>
<path d="M33.6444 151.098L36.9424 152.743L44.852 140.79L39.9842 138.361L33.6444 151.098Z" fill="#FFB6B6"/>
<path d="M31.21 153.879L41.8432 159.184L41.9097 159.051C42.181 158.507 42.3425 157.914 42.3851 157.308C42.4277 156.701 42.3504 156.092 42.1578 155.516C41.9652 154.939 41.661 154.406 41.2625 153.947C40.864 153.488 40.3792 153.112 39.8356 152.841L38.6252 150.397L38.4981 150.388L34.2691 150.062L34.1824 150.018L33.3389 149.599L31.21 153.879Z" fill="#2F2E41"/>
<path d="M69.4395 79.4045L49.1201 80.1166L48.9785 79.9106C48.9785 79.9106 47.2453 83.9597 47.2453 87.4304C47.2453 88.5843 48.0469 96.1316 47.6394 97.5595C47.5887 97.7371 47.9374 98.1723 47.823 98.9992C47.7488 99.5359 47.3394 99.1231 47.2453 99.8669C47.1778 100.401 47.8984 100.695 47.823 101.313C47.7407 101.988 46.7493 104.173 46.6601 104.924C45.7101 112.914 44.4452 124.489 44.4452 124.489C44.4452 124.489 39.365 138.112 38.2903 138.333C36.4865 138.705 35.2686 141.989 36.2683 142.672C36.7443 142.997 42.8962 145.185 42.8962 145.185C43.2343 145.246 44.2917 144.715 43.6181 143.459C43.494 143.228 44.2337 143.816 44.3566 143.539C44.4873 143.245 44.2307 142.074 44.3804 141.747C45.7249 138.814 47.7891 134.748 49.7453 132.661C52.6356 129.576 54.466 125.648 54.9694 121.449L59.4562 96.5396L60.994 103.525L62.2665 104.784L61.9174 107.719L61.9776 110.568L65.1552 122.426C65.1552 122.426 65.6317 144.572 64.8663 145.275C64.4518 145.656 62.6927 150.347 66.0218 150.77L72.0702 150.303C72.0702 150.303 72.8852 148.583 72.4777 147.971C72.0702 147.359 72.0946 147.526 72.5918 146.525C73.0889 145.523 72.8852 143.827 72.8852 143.827C73.6775 135.851 73.9901 127.836 73.8213 119.823C73.518 106.663 71.6806 91.5439 71.6806 91.2358C71.6653 90.9209 71.7232 90.6068 71.8499 90.3181V89.4875L71.0694 86.5441L69.4395 79.4045Z" fill="#2F2E41"/>
<path d="M43.1333 86.8045C42.9629 86.513 42.8584 86.1877 42.8272 85.8514C42.796 85.5151 42.8388 85.176 42.9527 84.858C43.0665 84.5401 43.2486 84.251 43.4861 84.0111C43.7236 83.7713 44.0107 83.5864 44.3273 83.4697L44.1813 68.8521L47.7824 71.133L47.3685 84.9874C47.5291 85.5328 47.4843 86.1183 47.2426 86.6329C47.0009 87.1474 46.5791 87.5554 46.057 87.7794C45.535 88.0034 44.949 88.0278 44.4101 87.8482C43.8713 87.6685 43.417 87.2972 43.1333 86.8045Z" fill="#FFB8B8"/>
<path d="M43.9548 80.6767L44.2613 80.6619L44.2978 80.6629L45.4319 80.6589L47.2998 80.6549L47.4351 80.653L47.496 80.6647L48.1337 80.7757L48.1601 80.6044L49.4031 78.2272L50.3588 76.9111L50.0111 75.3603L49.3254 74.5051L50.4901 73.092L50.6372 72.3941L51.6121 67.804L54.8434 52.5797L54.8437 52.5706L54.9116 52.2476L55.9624 47.3017L55.6387 46.0581L55.2779 44.6927C55.0471 43.8259 54.5122 43.0713 53.7711 42.567C53.4495 42.3491 53.0954 42.1836 52.7221 42.0765C52.2463 41.9354 51.7465 41.8942 51.2541 41.9556L51.2486 41.9572C50.9691 41.992 50.6945 42.0585 50.4301 42.1553L50.3248 42.1964C50.1784 42.2559 50.0359 42.3246 49.8982 42.4021C49.4713 42.6397 49.096 42.96 48.7939 43.3442C48.4919 43.7285 48.2692 44.1691 48.1389 44.6403L44.715 48.4589L44.1128 50.6196L43.9191 51.3135L43.2985 55.0127L43.3077 69.57L43.1972 70.2295L43.0401 73.8841L43.6541 74.7219L42.9604 75.7375L42.9366 76.295L42.9319 76.4385L43.8585 77.3805L43.9176 79.4122L43.9548 80.6767Z" fill="#3F3D56"/>
<path d="M47.2992 84.1637C52.4297 85.0521 55.8701 84.7138 57.9874 81.5607C60.7495 78.0392 65.7727 82.1973 70.0109 83.7433L70.5135 83.1996L71.3686 82.277L70.5829 81.3861L71.3686 79.6682L70.7129 77.5482L69.8751 77.3949L70.1004 75.5699L70.4529 74.5027L69.4187 73.366L68.5406 70.5288L69.1732 64.591C70.0389 56.4521 68.3615 48.2447 64.3722 41.1004L61.9717 38.9428L60.9751 38.0462L59.6376 35.5474L58.225 35.7122L54.4004 36.1547L54.2704 36.4671L53.3316 38.7346L49.9211 42.4026C49.4387 42.9214 49.0722 43.5371 48.8459 44.2087C48.6196 44.8803 48.5387 45.5924 48.6086 46.2977L48.7068 47.2869L48.779 47.9984L49.1199 51.4228L50.5093 65.4124L50.6133 66.1557L51.7313 74.199C49.9143 75.9574 49.8037 75.5738 49.0324 78.6685C48.9457 79.0126 47.9405 79.7791 47.8769 80.1146C47.7874 80.5889 47.2992 84.1637 47.2992 84.1637Z" fill="#3F3D56"/>
<path d="M57.7167 34.0733C61.3855 34.0733 64.3596 31.0955 64.3596 27.4222C64.3596 23.749 61.3855 20.7712 57.7167 20.7712C54.048 20.7712 51.0739 23.749 51.0739 27.4222C51.0739 31.0955 54.048 34.0733 57.7167 34.0733Z" fill="#FFB6B6"/>
<path d="M50.7665 22.4153C51.6582 21.4858 53.0826 21.0273 54.292 21.4684C54.5625 20.6935 55.0401 20.0078 55.6729 19.4859C56.3057 18.9639 57.0693 18.6258 57.8807 18.5083C58.6921 18.3909 59.5202 18.4985 60.2747 18.8196C61.0292 19.1407 61.6813 19.6628 62.1599 20.3293C62.3788 20.2309 62.6193 20.1907 62.8582 20.2127C63.0971 20.2347 63.3263 20.318 63.5236 20.4547C63.9153 20.7336 64.2308 21.1064 64.4414 21.539C64.9845 22.572 65.2376 23.7332 65.1739 24.8988C65.1101 26.0645 64.7319 27.1911 64.0794 28.1586C64.3394 27.633 63.6084 28.5382 62.896 28.301C62.2841 28.1404 59.7705 26.5267 59.1432 26.6083C58.516 26.6899 58.3124 26.1834 57.6988 26.0298C57.0978 25.8374 55.5636 28.325 55.2561 29.9709C55.1979 30.2829 55.0564 30.6704 54.7395 30.6775C54.3493 30.6863 54.2324 30.1267 53.9033 29.9165C53.7481 29.8375 53.5684 29.8219 53.402 29.873C53.2356 29.924 53.0955 30.0378 53.0112 30.1903C52.9342 30.347 52.8958 30.5198 52.8991 30.6944C52.9023 30.869 52.9472 31.0403 53.0299 31.194C53.1981 31.4995 53.4145 31.7759 53.6707 32.0123L53.5002 32.1061C53.3323 32.2265 53.1279 32.2847 52.9219 32.2707C52.7158 32.2567 52.5211 32.1713 52.371 32.0293C51.7366 32.3159 50.011 30.6997 50.2401 29.7219C49.7582 28.5233 49.4948 27.248 49.4621 25.9564C49.4355 24.6536 49.9014 23.3888 50.7665 22.4153Z" fill="#2F2E41"/>
<path d="M99.4962 62.0606C99.1744 62.1622 98.8344 62.1918 98.4999 62.1475C98.1655 62.1032 97.8449 61.986 97.5606 61.8042C97.2762 61.6224 97.0352 61.3804 96.8544 61.0953C96.6736 60.8101 96.5575 60.4887 96.5142 60.1538L82.2472 57.0468L85.2689 54.0386L98.6681 57.5224C99.235 57.4869 99.7951 57.6607 100.243 58.0111C100.69 58.3614 100.993 58.8639 101.095 59.4233C101.197 59.9827 101.091 60.5601 100.796 61.0462C100.502 61.5323 100.039 61.8932 99.4962 62.0606Z" fill="#FFB8B8"/>
<path d="M60.9403 41.4392C60.1133 41.4694 59.32 41.7747 58.6857 42.3067C58.3347 42.5981 58.042 42.9533 57.8231 43.3537C57.5822 43.7881 57.4319 44.2669 57.3814 44.7611L57.3815 44.764C57.3076 45.4918 57.4506 46.2253 57.7926 46.8719C58.1345 47.5185 58.6601 48.0492 59.3029 48.397L64.0028 50.947L64.5981 51.2694C68.6025 55.3558 75.3549 57.4919 83.1228 58.9091L87.5888 60.1322L89.0901 59.5743L89.4536 61.0034L90.9486 61.0524L91.7615 60.8833L93.4623 60.2155L93.787 59.5614L93.7869 59.5585L94.4849 56.458L94.4896 56.4375L94.4895 56.4346L94.6522 55.7253L93.6931 55.2809L92.8587 54.165L91.3499 54.1953L89.974 54.3152L89.5709 53.3711L72.1352 45.2931L68.5251 43.6189L68.5161 43.6136L68.3442 43.5327L63.6345 41.3511L62.3523 41.3918L60.9403 41.4392Z" fill="#3F3D56"/>
<path d="M99.0413 65.6597C100.612 65.6597 101.885 64.3851 101.885 62.8129C101.885 61.2406 100.612 59.9661 99.0413 59.9661C97.4709 59.9661 96.1979 61.2406 96.1979 62.8129C96.1979 64.3851 97.4709 65.6597 99.0413 65.6597Z" fill="#6C63FF"/>
<path d="M17.5322 158.005C15.4461 158.189 13.3453 157.904 11.3832 157.171C9.42117 156.439 7.64736 155.276 6.19138 153.769C4.28758 151.76 2.98112 149.173 1.71765 146.671C1.34986 145.943 0.969684 145.191 0.582911 144.469C0.151702 143.682 -0.0344007 142.785 0.0485767 141.891C0.131554 140.998 0.479809 140.15 1.04848 139.456C1.59344 138.763 2.33326 138.249 3.17263 137.981C4.01199 137.712 4.91242 137.701 5.75791 137.95L5.94228 138.003L7.60159 144.486C7.84914 143.519 8.38047 141.34 8.716 139.206L8.74418 139.027L8.90942 139.101C10.642 139.868 12.2712 140.851 13.7584 142.026C16.3932 144.142 18.5361 146.807 20.0382 149.836C21.5404 152.865 22.3657 156.185 22.4569 159.566L22.4613 159.767L17.5322 158.005Z" fill="#F2F2F2"/>
<path d="M80.8662 159.911L0.343953 160C0.252732 160 0.165243 159.964 0.10074 159.899C0.0362368 159.835 0 159.747 0 159.656C0 159.564 0.0362368 159.477 0.10074 159.412C0.165243 159.348 0.252732 159.311 0.343953 159.311L80.8662 159.222C80.9573 159.223 81.0445 159.259 81.1088 159.324C81.1731 159.388 81.2092 159.476 81.2092 159.567C81.2092 159.658 81.1731 159.745 81.1088 159.81C81.0445 159.874 80.9573 159.911 80.8662 159.911Z" fill="#CACACA"/>
<path d="M147.971 19.3259H132.661C132.316 19.3259 131.985 19.1888 131.741 18.9447C131.498 18.7006 131.361 18.3696 131.361 18.0244C131.361 17.6792 131.498 17.3482 131.741 17.1041C131.985 16.86 132.316 16.7229 132.661 16.7229H147.971C148.315 16.7229 148.646 16.86 148.89 17.1041C149.134 17.3482 149.27 17.6792 149.27 18.0244C149.27 18.3696 149.134 18.7006 148.89 18.9447C148.646 19.1888 148.315 19.3259 147.971 19.3259Z" fill="#E6E6E6"/>
<path d="M196.192 8.27376C195.563 8.27376 194.947 8.08687 194.424 7.73672C193.9 7.38658 193.493 6.8889 193.252 6.30664C193.011 5.72437 192.948 5.08366 193.071 4.46553C193.193 3.84739 193.496 3.27961 193.942 2.83396C194.387 2.38831 194.954 2.08482 195.571 1.96187C196.189 1.83891 196.828 1.90202 197.41 2.1432C197.992 2.38438 198.489 2.79281 198.838 3.31684C199.188 3.84087 199.375 4.45695 199.375 5.0872C199.375 5.93232 199.039 6.74284 198.443 7.34043C197.846 7.93803 197.036 8.27376 196.192 8.27376Z" fill="#E6E6E6"/>
</svg>
