<svg width="15" height="14" viewBox="0 0 15 14" fill="none" xmlns="http://www.w3.org/2000/svg">
<path d="M6.80113 3.52986V0.575845C6.80113 0.261748 7.05165 0 7.36849 0C7.65218 0 7.89252 0.219941 7.93061 0.498533L7.93586 0.575845V3.52986L11.4579 3.53008C13.2116 3.53008 14.6524 4.96616 14.7333 6.75714L14.7368 6.91607V10.6292C14.7368 12.4328 13.3462 13.9132 11.6185 13.9963L11.4653 14H3.27158C1.51789 14 0.0840662 12.5711 0.00356468 10.7736L0 10.614L0 6.90846C0 5.10492 1.38372 3.61732 3.11094 3.53378L3.26421 3.53008H6.80105V8.24763L5.62211 7.0302C5.40105 6.80193 5.04 6.80193 4.81895 7.0302C4.70842 7.14433 4.65684 7.29651 4.65684 7.44869C4.65684 7.56435 4.68985 7.68487 4.75965 7.7869L4.81895 7.85958L6.96316 10.0814C7.06632 10.1955 7.21368 10.2564 7.36842 10.2564C7.49123 10.2564 7.61404 10.2141 7.71126 10.134L7.76632 10.0814L9.91053 7.85958C10.1316 7.63131 10.1316 7.25847 9.91053 7.0302C9.70957 6.82268 9.39291 6.80382 9.17092 6.9736L9.10737 7.0302L7.93579 8.24763V3.53008L6.80113 3.52986Z" fill="white"/>
</svg>
