<svg width="21" height="20" viewBox="0 0 21 20" fill="none" xmlns="http://www.w3.org/2000/svg">
<path d="M10.0615 20C4.50455 20 0 15.523 0 10C0 4.477 4.50455 0 10.0615 0C15.6185 0 20.1231 4.477 20.1231 10C20.1231 15.523 15.6185 20 10.0615 20ZM10.0615 18C12.1963 18 14.2437 17.1571 15.7532 15.6569C17.2627 14.1566 18.1108 12.1217 18.1108 10C18.1108 7.87827 17.2627 5.84344 15.7532 4.34315C14.2437 2.84285 12.1963 2 10.0615 2C7.92675 2 5.8794 2.84285 4.36987 4.34315C2.86035 5.84344 2.01231 7.87827 2.01231 10C2.01231 12.1217 2.86035 14.1566 4.36987 15.6569C5.8794 17.1571 7.92675 18 10.0615 18ZM7.04308 11H6.03692V9H7.04308V8C7.04261 7.18727 7.32674 6.3997 7.84671 5.77244C8.36669 5.14518 9.0901 4.71732 9.89282 4.56228C10.6955 4.40723 11.5275 4.53467 12.246 4.92272C12.9645 5.31077 13.5248 5.93525 13.8306 6.689L11.8324 7.185C11.656 6.91222 11.3953 6.70365 11.0896 6.59057C10.7838 6.47749 10.4494 6.46601 10.1365 6.55784C9.82358 6.64967 9.54907 6.83986 9.35415 7.09989C9.15923 7.35991 9.0544 7.67574 9.05538 8V9H12.0738V11H9.05538V13H14.0862V15H6.03692V13H7.04308V11Z" fill="#8982FF"/>
</svg>
