<svg width="48" height="15" viewBox="0 0 48 15" fill="none" xmlns="http://www.w3.org/2000/svg">
<path d="M44.2517 14.7835L43.8036 12.6089H38.7974L38.0009 14.768L33.9883 14.7758C35.8985 10.3166 37.8129 5.85917 39.7313 1.40335C40.0579 0.647551 40.6374 0.262888 41.4917 0.266753C42.1449 0.272552 43.2102 0.272551 44.6898 0.268685L47.7923 14.7777L44.2517 14.7835ZM39.9245 9.63015H43.1505L41.9457 4.17912L39.9245 9.63015ZM14.0589 0.26482L18.0934 0.268685L11.8565 14.7854L7.77222 14.7816C6.74519 10.9471 5.73092 7.10949 4.72945 3.26869C4.53031 2.50322 4.13603 1.96778 3.37732 1.71456C2.70226 1.4884 1.57715 1.14046 0 0.666882V0.270619H6.44599C7.56114 0.270619 8.21231 0.794459 8.4214 1.8692C8.63249 2.94588 9.16218 5.68685 10.0145 10.0921L14.0589 0.26482ZM23.6373 0.268685L20.4471 14.7816L16.6078 14.7777L19.794 0.26482L23.6373 0.268685ZM31.4234 0C32.5724 0 34.0202 0.347939 34.8525 0.666882L34.1795 3.67655C33.4267 3.38273 32.1881 2.98647 31.1466 3C29.6332 3.02513 28.6973 3.64175 28.6973 4.23325C28.6973 5.19588 30.3222 5.68106 31.995 6.7326C33.9047 7.93106 34.1556 9.00773 34.1317 10.1772C34.1058 12.605 31.995 15 27.5423 15C25.5111 14.971 24.7783 14.8048 23.1215 14.2345L23.8225 11.0934C25.5091 11.7796 26.224 11.9981 27.6658 11.9981C28.986 11.9981 30.1191 11.48 30.1291 10.5773C30.137 9.93557 29.7308 9.61662 28.2492 8.8241C26.7677 8.02964 24.6887 6.92977 24.7166 4.72229C24.7504 1.89626 27.5085 0 31.4254 0H31.4234Z" fill="#8982FF"/>
</svg>
